<svg width="615" height="388" viewBox="0 0 615 388" fill="none" xmlns="http://www.w3.org/2000/svg">
<rect width="615" height="388" fill="white"/>
<line x1="96.474" y1="75.1758" x2="96.474" y2="292.722" stroke="black" stroke-width="1.08773"/>
<line x1="92.123" y1="288.917" x2="543.532" y2="288.917" stroke="black" stroke-width="1.08773"/>
<line x1="92.123" y1="197.546" x2="543.532" y2="197.546" stroke="black" stroke-width="1.08773"/>
<line x1="92.123" y1="106.175" x2="543.532" y2="106.175" stroke="black" stroke-width="1.08773"/>
<line x1="92.123" y1="243.23" x2="543.532" y2="243.23" stroke="black" stroke-width="1.08773"/>
<line x1="92.123" y1="151.862" x2="543.532" y2="151.862" stroke="black" stroke-width="1.08773"/>
<line x1="92.123" y1="266.073" x2="543.532" y2="266.073" stroke="black" stroke-width="1.08773"/>
<line x1="92.123" y1="174.702" x2="543.532" y2="174.702" stroke="black" stroke-width="1.08773"/>
<line x1="92.123" y1="83.335" x2="543.532" y2="83.335" stroke="black" stroke-width="1.08773"/>
<line x1="92.123" y1="220.39" x2="543.532" y2="220.39" stroke="black" stroke-width="1.08773"/>
<line x1="92.123" y1="129.019" x2="543.532" y2="129.019" stroke="black" stroke-width="1.08773"/>
<line x1="245.765" y1="292.723" x2="245.765" y2="288.916" stroke="black" stroke-width="0.543867"/>
<line x1="395.329" y1="292.723" x2="395.329" y2="288.916" stroke="black" stroke-width="0.543867"/>
<line x1="543.26" y1="292.723" x2="543.26" y2="288.916" stroke="black" stroke-width="0.543867"/>
<rect x="134.001" y="254.652" width="74.5097" height="33.7197" fill="#4B79E9"/>
<rect x="283.02" y="106.719" width="74.5097" height="181.651" fill="#4B79E9"/>
<rect x="432.584" y="276.949" width="74.5097" height="11.4212" fill="#4B79E9"/>
<path d="M162.985 301.89C162.774 300.826 162.118 300.294 161.016 300.294C160.162 300.294 159.525 300.625 159.103 301.286C158.681 301.938 158.475 303.016 158.485 304.521C158.705 304.023 159.07 303.635 159.578 303.357C160.095 303.069 160.67 302.925 161.303 302.925C162.29 302.925 163.076 303.232 163.661 303.845C164.255 304.459 164.553 305.307 164.553 306.39C164.553 307.042 164.423 307.627 164.164 308.145C163.915 308.662 163.532 309.074 163.014 309.381C162.506 309.688 161.888 309.841 161.159 309.841C160.172 309.841 159.4 309.621 158.844 309.18C158.288 308.739 157.9 308.13 157.68 307.354C157.459 306.577 157.349 305.619 157.349 304.478C157.349 300.96 158.576 299.201 161.03 299.201C161.969 299.201 162.707 299.455 163.244 299.963C163.781 300.471 164.097 301.114 164.193 301.89H162.985ZM161.03 304.032C160.618 304.032 160.229 304.119 159.865 304.291C159.501 304.454 159.204 304.708 158.974 305.053C158.753 305.389 158.643 305.801 158.643 306.29C158.643 307.018 158.854 307.613 159.276 308.073C159.697 308.523 160.301 308.748 161.087 308.748C161.758 308.748 162.29 308.542 162.683 308.13C163.086 307.708 163.287 307.143 163.287 306.434C163.287 305.686 163.096 305.101 162.712 304.679C162.329 304.248 161.768 304.032 161.03 304.032ZM171.494 296.268L167.554 312.257H166.26L170.186 296.268H171.494ZM178.404 296.268L174.464 312.257H173.17L177.096 296.268H178.404ZM186.004 301.89C185.794 300.826 185.137 300.294 184.035 300.294C183.181 300.294 182.544 300.625 182.122 301.286C181.7 301.938 181.494 303.016 181.504 304.521C181.724 304.023 182.089 303.635 182.597 303.357C183.114 303.069 183.689 302.925 184.322 302.925C185.309 302.925 186.095 303.232 186.68 303.845C187.275 304.459 187.572 305.307 187.572 306.39C187.572 307.042 187.442 307.627 187.183 308.145C186.934 308.662 186.551 309.074 186.033 309.381C185.525 309.688 184.907 309.841 184.178 309.841C183.191 309.841 182.419 309.621 181.863 309.18C181.307 308.739 180.919 308.13 180.699 307.354C180.478 306.577 180.368 305.619 180.368 304.478C180.368 300.96 181.595 299.201 184.049 299.201C184.988 299.201 185.726 299.455 186.263 299.963C186.8 300.471 187.116 301.114 187.212 301.89H186.004ZM184.049 304.032C183.637 304.032 183.249 304.119 182.884 304.291C182.52 304.454 182.223 304.708 181.993 305.053C181.772 305.389 181.662 305.801 181.662 306.29C181.662 307.018 181.873 307.613 182.295 308.073C182.717 308.523 183.32 308.748 184.106 308.748C184.777 308.748 185.309 308.542 185.702 308.13C186.105 307.708 186.306 307.143 186.306 306.434C186.306 305.686 186.115 305.101 185.731 304.679C185.348 304.248 184.787 304.032 184.049 304.032Z" fill="black"/>
<path d="M82.1372 289.276C82.1372 287.628 82.4056 286.343 82.9424 285.423C83.4792 284.493 84.4186 284.028 85.7606 284.028C87.093 284.028 88.0276 284.493 88.5644 285.423C89.1012 286.343 89.3696 287.628 89.3696 289.276C89.3696 290.954 89.1012 292.258 88.5644 293.187C88.0276 294.117 87.093 294.582 85.7606 294.582C84.4186 294.582 83.4792 294.117 82.9424 293.187C82.4056 292.258 82.1372 290.954 82.1372 289.276ZM88.0755 289.276C88.0755 288.442 88.018 287.738 87.903 287.163C87.7975 286.578 87.5723 286.108 87.2272 285.754C86.8917 285.399 86.4028 285.222 85.7606 285.222C85.1087 285.222 84.6103 285.399 84.2652 285.754C83.9297 286.108 83.7044 286.578 83.5894 287.163C83.484 287.738 83.4313 288.442 83.4313 289.276C83.4313 290.139 83.484 290.863 83.5894 291.448C83.7044 292.032 83.9297 292.502 84.2652 292.857C84.6103 293.211 85.1087 293.389 85.7606 293.389C86.4028 293.389 86.8917 293.211 87.2272 292.857C87.5723 292.502 87.7975 292.032 87.903 291.448C88.018 290.863 88.0755 290.139 88.0755 289.276Z" fill="black"/>
<path d="M76.8973 262.536V261.343H79.6005V271.738H78.2777V262.536H76.8973ZM81.9199 266.433C81.9199 264.784 82.1883 263.499 82.7251 262.579C83.2619 261.649 84.2013 261.184 85.5433 261.184C86.8757 261.184 87.8103 261.649 88.3471 262.579C88.8839 263.499 89.1523 264.784 89.1523 266.433C89.1523 268.11 88.8839 269.414 88.3471 270.344C87.8103 271.273 86.8757 271.738 85.5433 271.738C84.2013 271.738 83.2619 271.273 82.7251 270.344C82.1883 269.414 81.9199 268.11 81.9199 266.433ZM87.8582 266.433C87.8582 265.599 87.8007 264.894 87.6857 264.319C87.5802 263.734 87.355 263.265 87.0099 262.91C86.6744 262.555 86.1855 262.378 85.5433 262.378C84.8915 262.378 84.393 262.555 84.0479 262.91C83.7124 263.265 83.4872 263.734 83.3721 264.319C83.2667 264.894 83.214 265.599 83.214 266.433C83.214 267.295 83.2667 268.019 83.3721 268.604C83.4872 269.188 83.7124 269.658 84.0479 270.013C84.393 270.368 84.8915 270.545 85.5433 270.545C86.1855 270.545 86.6744 270.368 87.0099 270.013C87.355 269.658 87.5802 269.188 87.6857 268.604C87.8007 268.019 87.8582 267.295 87.8582 266.433Z" fill="black"/>
<path d="M73.821 247.849C75.0384 246.871 75.9922 246.071 76.6823 245.448C77.3725 244.815 77.9524 244.158 78.4221 243.478C78.9014 242.788 79.141 242.112 79.141 241.45C79.141 240.827 78.9877 240.338 78.6809 239.984C78.3838 239.62 77.8997 239.437 77.2287 239.437C76.5769 239.437 76.0688 239.643 75.7046 240.056C75.3499 240.458 75.1582 241 75.1295 241.68H73.8641C73.9025 240.607 74.2284 239.778 74.8419 239.193C75.4554 238.608 76.2462 238.316 77.2143 238.316C78.2017 238.316 78.9829 238.589 79.558 239.135C80.1427 239.682 80.4351 240.434 80.4351 241.393C80.4351 242.188 80.1955 242.965 79.7162 243.722C79.2465 244.47 78.7097 245.131 78.1058 245.706C77.5019 246.272 76.7303 246.933 75.7909 247.691H80.7371V248.783H73.821V247.849ZM82.3215 243.593C82.3215 241.944 82.5899 240.66 83.1267 239.739C83.6635 238.81 84.6029 238.345 85.9449 238.345C87.2773 238.345 88.2119 238.81 88.7487 239.739C89.2855 240.66 89.5539 241.944 89.5539 243.593C89.5539 245.27 89.2855 246.574 88.7487 247.504C88.2119 248.434 87.2773 248.898 85.9449 248.898C84.6029 248.898 83.6635 248.434 83.1267 247.504C82.5899 246.574 82.3215 245.27 82.3215 243.593ZM88.2598 243.593C88.2598 242.759 88.2023 242.054 88.0873 241.479C87.9818 240.894 87.7566 240.425 87.4115 240.07C87.076 239.715 86.5871 239.538 85.9449 239.538C85.293 239.538 84.7946 239.715 84.4495 240.07C84.114 240.425 83.8888 240.894 83.7737 241.479C83.6683 242.054 83.6156 242.759 83.6156 243.593C83.6156 244.455 83.6683 245.179 83.7737 245.764C83.8888 246.349 84.114 246.818 84.4495 247.173C84.7946 247.528 85.293 247.705 85.9449 247.705C86.5871 247.705 87.076 247.528 87.4115 247.173C87.7566 246.818 87.9818 246.349 88.0873 245.764C88.2023 245.179 88.2598 244.455 88.2598 243.593Z" fill="black"/>
<path d="M73.4065 218.276C73.4736 217.394 73.8139 216.704 74.4274 216.205C75.0409 215.707 75.8365 215.458 76.8142 215.458C77.4661 215.458 78.0268 215.578 78.4965 215.817C78.9758 216.047 79.3353 216.364 79.5749 216.766C79.8241 217.169 79.9487 217.624 79.9487 218.132C79.9487 218.726 79.7762 219.239 79.4311 219.671C79.0956 220.102 78.6547 220.38 78.1083 220.505V220.576C78.7314 220.73 79.225 221.032 79.5893 221.482C79.9535 221.933 80.1357 222.522 80.1357 223.251C80.1357 223.797 80.011 224.291 79.7618 224.732C79.5126 225.163 79.1388 225.504 78.6403 225.753C78.1418 226.002 77.5427 226.127 76.843 226.127C75.8269 226.127 74.993 225.863 74.3411 225.336C73.6893 224.799 73.3251 224.042 73.2484 223.064H74.5137C74.5808 223.639 74.8156 224.109 75.2182 224.473C75.6208 224.837 76.1576 225.019 76.8286 225.019C77.4996 225.019 78.0076 224.847 78.3527 224.502C78.7074 224.147 78.8847 223.692 78.8847 223.136C78.8847 222.417 78.6451 221.899 78.1658 221.583C77.6865 221.267 76.9628 221.108 75.9947 221.108H75.664V220.016H76.009C76.8909 220.006 77.5571 219.862 78.0076 219.584C78.4582 219.297 78.6834 218.856 78.6834 218.262C78.6834 217.754 78.5157 217.346 78.1802 217.039C77.8543 216.733 77.3846 216.579 76.7711 216.579C76.1768 216.579 75.6975 216.733 75.3332 217.039C74.969 217.346 74.7533 217.758 74.6862 218.276H73.4065ZM81.9742 220.749C81.9742 219.1 82.2426 217.816 82.7794 216.896C83.3162 215.966 84.2556 215.501 85.5976 215.501C86.93 215.501 87.8646 215.966 88.4014 216.896C88.9382 217.816 89.2066 219.1 89.2066 220.749C89.2066 222.427 88.9382 223.73 88.4014 224.66C87.8646 225.59 86.93 226.055 85.5976 226.055C84.2556 226.055 83.3162 225.59 82.7794 224.66C82.2426 223.73 81.9742 222.427 81.9742 220.749ZM87.9125 220.749C87.9125 219.915 87.855 219.211 87.74 218.635C87.6345 218.051 87.4093 217.581 87.0642 217.226C86.7287 216.872 86.2398 216.694 85.5976 216.694C84.9457 216.694 84.4473 216.872 84.1022 217.226C83.7667 217.581 83.5414 218.051 83.4264 218.635C83.321 219.211 83.2683 219.915 83.2683 220.749C83.2683 221.612 83.321 222.335 83.4264 222.92C83.5414 223.505 83.7667 223.975 84.1022 224.329C84.4473 224.684 84.9457 224.861 85.5976 224.861C86.2398 224.861 86.7287 224.684 87.0642 224.329C87.4093 223.975 87.6345 223.505 87.74 222.92C87.855 222.335 87.9125 221.612 87.9125 220.749Z" fill="black"/>
<path d="M72.5751 200.896V199.904L77.622 192.916H79.1892V199.76H80.6271V200.896H79.1892V203.211H77.8952V200.896H72.5751ZM77.9527 194.282L74.0849 199.76H77.9527V194.282ZM82.0061 197.905C82.0061 196.257 82.2745 194.972 82.8113 194.052C83.3481 193.122 84.2875 192.657 85.6294 192.657C86.9619 192.657 87.8965 193.122 88.4332 194.052C88.97 194.972 89.2384 196.257 89.2384 197.905C89.2384 199.583 88.97 200.886 88.4332 201.816C87.8965 202.746 86.9619 203.211 85.6294 203.211C84.2875 203.211 83.3481 202.746 82.8113 201.816C82.2745 200.886 82.0061 199.583 82.0061 197.905ZM87.9444 197.905C87.9444 197.071 87.8869 196.367 87.7718 195.792C87.6664 195.207 87.4411 194.737 87.0961 194.383C86.7606 194.028 86.2717 193.851 85.6294 193.851C84.9776 193.851 84.4792 194.028 84.1341 194.383C83.7986 194.737 83.5733 195.207 83.4583 195.792C83.3529 196.367 83.3001 197.071 83.3001 197.905C83.3001 198.768 83.3529 199.492 83.4583 200.076C83.5733 200.661 83.7986 201.131 84.1341 201.486C84.4792 201.84 84.9776 202.018 85.6294 202.018C86.2717 202.018 86.7606 201.84 87.0961 201.486C87.4411 201.131 87.6664 200.661 87.7718 200.076C87.8869 199.492 87.9444 198.768 87.9444 197.905Z" fill="black"/>
<path d="M79.5199 171.107H74.4731V174.386C74.6936 174.079 75.0195 173.83 75.4508 173.638C75.8822 173.437 76.3471 173.336 76.8455 173.336C77.6412 173.336 78.2882 173.504 78.7866 173.839C79.2851 174.165 79.6398 174.592 79.8506 175.119C80.0711 175.637 80.1814 176.188 80.1814 176.773C80.1814 177.463 80.0519 178.081 79.7931 178.627C79.5343 179.174 79.1365 179.605 78.5997 179.921C78.0725 180.238 77.4159 180.396 76.6299 180.396C75.6234 180.396 74.8086 180.137 74.1855 179.62C73.5625 179.102 73.1838 178.412 73.0496 177.549H74.3293C74.4539 178.095 74.7175 178.522 75.1201 178.829C75.5227 179.135 76.0308 179.289 76.6442 179.289C77.4015 179.289 77.9719 179.064 78.3553 178.613C78.7387 178.153 78.9304 177.549 78.9304 176.801C78.9304 176.054 78.7387 175.479 78.3553 175.076C77.9719 174.664 77.4063 174.458 76.6586 174.458C76.1506 174.458 75.7049 174.582 75.3214 174.831C74.9476 175.071 74.6744 175.402 74.5019 175.824H73.2653V169.957H79.5199V171.107ZM81.992 175.062C81.992 173.413 82.2604 172.128 82.7972 171.208C83.334 170.278 84.2734 169.813 85.6154 169.813C86.9478 169.813 87.8824 170.278 88.4192 171.208C88.956 172.128 89.2244 173.413 89.2244 175.062C89.2244 176.739 88.956 178.043 88.4192 178.972C87.8824 179.902 86.9478 180.367 85.6154 180.367C84.2734 180.367 83.334 179.902 82.7972 178.972C82.2604 178.043 81.992 176.739 81.992 175.062ZM87.9303 175.062C87.9303 174.228 87.8728 173.523 87.7578 172.948C87.6524 172.363 87.4271 171.893 87.082 171.539C86.7465 171.184 86.2576 171.007 85.6154 171.007C84.9636 171.007 84.4651 171.184 84.12 171.539C83.7845 171.893 83.5593 172.363 83.4443 172.948C83.3388 173.523 83.2861 174.228 83.2861 175.062C83.2861 175.924 83.3388 176.648 83.4443 177.233C83.5593 177.817 83.7845 178.287 84.12 178.642C84.4651 178.996 84.9636 179.174 85.6154 179.174C86.2576 179.174 86.7465 178.996 87.082 178.642C87.4271 178.287 87.6524 177.817 87.7578 177.233C87.8728 176.648 87.9303 175.924 87.9303 175.062Z" fill="black"/>
<path d="M80.3776 125.309L76.3804 134.684H75.0576L79.1123 125.438H73.5622V124.317H80.3776V125.309ZM81.9003 129.378C81.9003 127.729 82.1686 126.445 82.7054 125.525C83.2422 124.595 84.1816 124.13 85.5236 124.13C86.856 124.13 87.7906 124.595 88.3274 125.525C88.8642 126.445 89.1326 127.729 89.1326 129.378C89.1326 131.055 88.8642 132.359 88.3274 133.289C87.7906 134.219 86.856 134.684 85.5236 134.684C84.1816 134.684 83.2422 134.219 82.7054 133.289C82.1686 132.359 81.9003 131.055 81.9003 129.378ZM87.8386 129.378C87.8386 128.544 87.781 127.839 87.666 127.264C87.5606 126.68 87.3353 126.21 86.9902 125.855C86.6547 125.501 86.1659 125.323 85.5236 125.323C84.8718 125.323 84.3733 125.501 84.0283 125.855C83.6928 126.21 83.4675 126.68 83.3525 127.264C83.247 127.839 83.1943 128.544 83.1943 129.378C83.1943 130.241 83.247 130.964 83.3525 131.549C83.4675 132.134 83.6928 132.604 84.0283 132.958C84.3733 133.313 84.8718 133.49 85.5236 133.49C86.1659 133.49 86.6547 133.313 86.9902 132.958C87.3353 132.604 87.5606 132.134 87.666 131.549C87.781 130.964 87.8386 130.241 87.8386 129.378Z" fill="black"/>
<path d="M78.686 149.605C78.4751 148.541 77.8185 148.009 76.7161 148.009C75.863 148.009 75.2256 148.339 74.8038 149.001C74.382 149.653 74.1759 150.731 74.1855 152.236C74.406 151.738 74.7703 151.349 75.2783 151.071C75.7959 150.784 76.3711 150.64 77.0037 150.64C77.991 150.64 78.7771 150.947 79.3618 151.56C79.9561 152.174 80.2532 153.022 80.2532 154.105C80.2532 154.757 80.1238 155.342 79.865 155.859C79.6158 156.377 79.2324 156.789 78.7147 157.096C78.2067 157.403 77.5884 157.556 76.8599 157.556C75.8726 157.556 75.101 157.336 74.545 156.895C73.989 156.454 73.6008 155.845 73.3803 155.069C73.1599 154.292 73.0496 153.334 73.0496 152.193C73.0496 148.675 74.2766 146.916 76.7305 146.916C77.6699 146.916 78.408 147.17 78.9448 147.678C79.4816 148.186 79.7979 148.828 79.8938 149.605H78.686ZM76.7305 151.747C76.3183 151.747 75.9301 151.833 75.5659 152.006C75.2016 152.169 74.9045 152.423 74.6744 152.768C74.4539 153.104 74.3437 153.516 74.3437 154.005C74.3437 154.733 74.5546 155.327 74.9763 155.788C75.3981 156.238 76.002 156.463 76.788 156.463C77.459 156.463 77.991 156.257 78.384 155.845C78.7866 155.423 78.9879 154.858 78.9879 154.148C78.9879 153.401 78.7962 152.816 78.4128 152.394C78.0294 151.963 77.4686 151.747 76.7305 151.747ZM82.0903 152.222C82.0903 150.573 82.3587 149.288 82.8955 148.368C83.4323 147.438 84.3717 146.974 85.7137 146.974C87.0461 146.974 87.9807 147.438 88.5175 148.368C89.0543 149.288 89.3227 150.573 89.3227 152.222C89.3227 153.899 89.0543 155.203 88.5175 156.133C87.9807 157.062 87.0461 157.527 85.7137 157.527C84.3717 157.527 83.4323 157.062 82.8955 156.133C82.3587 155.203 82.0903 153.899 82.0903 152.222ZM88.0286 152.222C88.0286 151.388 87.9711 150.683 87.8561 150.108C87.7506 149.523 87.5254 149.054 87.1803 148.699C86.8448 148.344 86.3559 148.167 85.7137 148.167C85.0619 148.167 84.5634 148.344 84.2183 148.699C83.8828 149.054 83.6576 149.523 83.5425 150.108C83.4371 150.683 83.3844 151.388 83.3844 152.222C83.3844 153.084 83.4371 153.808 83.5425 154.393C83.6576 154.978 83.8828 155.447 84.2183 155.802C84.5634 156.157 85.0619 156.334 85.7137 156.334C86.3559 156.334 86.8448 156.157 87.1803 155.802C87.5254 155.447 87.7506 154.978 87.8561 154.393C87.9711 153.808 88.0286 153.084 88.0286 152.222Z" fill="black"/>
<path d="M74.7894 106.437C74.2526 106.227 73.8404 105.92 73.5529 105.517C73.2653 105.115 73.1215 104.626 73.1215 104.051C73.1215 103.533 73.2509 103.068 73.5097 102.656C73.7686 102.234 74.152 101.903 74.66 101.664C75.1776 101.415 75.8007 101.29 76.5292 101.29C77.2577 101.29 77.876 101.415 78.384 101.664C78.9017 101.903 79.2899 102.234 79.5487 102.656C79.8171 103.068 79.9513 103.533 79.9513 104.051C79.9513 104.607 79.8027 105.095 79.5056 105.517C79.2084 105.929 78.801 106.236 78.2834 106.437C78.8777 106.62 79.3474 106.941 79.6925 107.401C80.0472 107.851 80.2245 108.398 80.2245 109.04C80.2245 109.663 80.0711 110.209 79.7644 110.679C79.4576 111.139 79.0215 111.499 78.4559 111.757C77.9 112.007 77.2577 112.131 76.5292 112.131C75.8007 112.131 75.1585 112.007 74.6025 111.757C74.0561 111.499 73.6296 111.139 73.3228 110.679C73.0161 110.209 72.8627 109.663 72.8627 109.04C72.8627 108.398 73.0353 107.847 73.3803 107.386C73.7254 106.926 74.1951 106.61 74.7894 106.437ZM78.686 104.209C78.686 103.624 78.4943 103.174 78.1109 102.857C77.7274 102.541 77.2002 102.383 76.5292 102.383C75.8678 102.383 75.3454 102.541 74.962 102.857C74.5785 103.174 74.3868 103.629 74.3868 104.223C74.3868 104.76 74.5833 105.191 74.9763 105.517C75.3789 105.843 75.8966 106.006 76.5292 106.006C77.1715 106.006 77.6891 105.843 78.0821 105.517C78.4847 105.182 78.686 104.746 78.686 104.209ZM76.5292 107.013C75.8199 107.013 75.2399 107.18 74.7894 107.516C74.3389 107.842 74.1136 108.335 74.1136 108.997C74.1136 109.61 74.3293 110.104 74.7607 110.478C75.2016 110.852 75.7911 111.039 76.5292 111.039C77.2673 111.039 77.852 110.852 78.2834 110.478C78.7147 110.104 78.9304 109.61 78.9304 108.997C78.9304 108.355 78.71 107.866 78.269 107.53C77.8281 107.185 77.2481 107.013 76.5292 107.013ZM82.0342 106.538C82.0342 104.889 82.3026 103.605 82.8393 102.685C83.3761 101.755 84.3155 101.29 85.6575 101.29C86.9899 101.29 87.9245 101.755 88.4613 102.685C88.9981 103.605 89.2665 104.889 89.2665 106.538C89.2665 108.216 88.9981 109.519 88.4613 110.449C87.9245 111.379 86.9899 111.844 85.6575 111.844C84.3155 111.844 83.3761 111.379 82.8393 110.449C82.3026 109.519 82.0342 108.216 82.0342 106.538ZM87.9725 106.538C87.9725 105.704 87.9149 105 87.7999 104.424C87.6945 103.84 87.4692 103.37 87.1241 103.015C86.7886 102.661 86.2998 102.483 85.6575 102.483C85.0057 102.483 84.5073 102.661 84.1622 103.015C83.8267 103.37 83.6014 103.84 83.4864 104.424C83.3809 105 83.3282 105.704 83.3282 106.538C83.3282 107.401 83.3809 108.125 83.4864 108.709C83.6014 109.294 83.8267 109.764 84.1622 110.118C84.5073 110.473 85.0057 110.65 85.6575 110.65C86.2998 110.65 86.7886 110.473 87.1241 110.118C87.4692 109.764 87.6945 109.294 87.7999 108.709C87.9149 108.125 87.9725 107.401 87.9725 106.538Z" fill="black"/>
<path d="M74.5737 86.2106C74.6696 86.757 74.8901 87.1787 75.2352 87.4759C75.5898 87.773 76.0643 87.9216 76.6586 87.9216C77.4542 87.9216 78.039 87.6101 78.4128 86.987C78.7962 86.3639 78.9784 85.3143 78.9592 83.8381C78.7579 84.2695 78.4224 84.6098 77.9527 84.859C77.483 85.0986 76.9606 85.2185 76.3854 85.2185C75.7432 85.2185 75.1681 85.0891 74.66 84.8302C74.1616 84.5618 73.7686 84.1736 73.481 83.6656C73.1934 83.1575 73.0496 82.5441 73.0496 81.8251C73.0496 80.7995 73.3468 79.9751 73.9411 79.352C74.5354 78.7194 75.3789 78.4031 76.4717 78.4031C77.8137 78.4031 78.7531 78.8392 79.2899 79.7115C79.8363 80.5838 80.1095 81.8827 80.1095 83.6081C80.1095 84.8159 79.9992 85.8128 79.7788 86.5988C79.5679 87.3848 79.2036 87.9839 78.686 88.3961C78.178 88.8083 77.4782 89.0144 76.5867 89.0144C75.609 89.0144 74.8469 88.7508 74.3006 88.2236C73.7542 87.6964 73.4426 87.0254 73.366 86.2106H74.5737ZM76.6011 84.1113C77.2434 84.1113 77.7706 83.9148 78.1827 83.5218C78.5949 83.1192 78.801 82.5776 78.801 81.897C78.801 81.1781 78.5997 80.5982 78.1971 80.1572C77.7945 79.7163 77.229 79.4958 76.5005 79.4958C75.8295 79.4958 75.2927 79.7067 74.8901 80.1285C74.4971 80.5502 74.3006 81.1062 74.3006 81.7964C74.3006 82.4961 74.4971 83.0569 74.8901 83.4787C75.2831 83.9004 75.8534 84.1113 76.6011 84.1113ZM82.0201 83.6943C82.0201 82.0456 82.2885 80.7611 82.8253 79.8409C83.3621 78.9111 84.3015 78.4462 85.6435 78.4462C86.9759 78.4462 87.9105 78.9111 88.4473 79.8409C88.9841 80.7611 89.2525 82.0456 89.2525 83.6943C89.2525 85.3718 88.9841 86.6755 88.4473 87.6053C87.9105 88.5351 86.9759 89 85.6435 89C84.3015 89 83.3621 88.5351 82.8253 87.6053C82.2885 86.6755 82.0201 85.3718 82.0201 83.6943ZM87.9584 83.6943C87.9584 82.8604 87.9009 82.1558 87.7859 81.5807C87.6804 80.996 87.4552 80.5263 87.1101 80.1716C86.7746 79.8169 86.2857 79.6396 85.6435 79.6396C84.9917 79.6396 84.4932 79.8169 84.1481 80.1716C83.8126 80.5263 83.5874 80.996 83.4723 81.5807C83.3669 82.1558 83.3142 82.8604 83.3142 83.6943C83.3142 84.5571 83.3669 85.2808 83.4723 85.8655C83.5874 86.4502 83.8126 86.9199 84.1481 87.2746C84.4932 87.6293 84.9917 87.8066 85.6435 87.8066C86.2857 87.8066 86.7746 87.6293 87.1101 87.2746C87.4552 86.9199 87.6804 86.4502 87.7859 85.8655C87.9009 85.2808 87.9584 84.5571 87.9584 83.6943Z" fill="black"/>
<path d="M312.549 301.89C312.338 300.826 311.681 300.294 310.579 300.294C309.726 300.294 309.088 300.625 308.666 301.286C308.245 301.938 308.039 303.016 308.048 304.521C308.269 304.023 308.633 303.635 309.141 303.357C309.659 303.069 310.234 302.925 310.866 302.925C311.854 302.925 312.64 303.232 313.224 303.845C313.819 304.459 314.116 305.307 314.116 306.39C314.116 307.042 313.987 307.627 313.728 308.145C313.478 308.662 313.095 309.074 312.577 309.381C312.069 309.688 311.451 309.841 310.723 309.841C309.735 309.841 308.964 309.621 308.408 309.18C307.852 308.739 307.463 308.13 307.243 307.354C307.023 306.577 306.912 305.619 306.912 304.478C306.912 300.96 308.139 299.201 310.593 299.201C311.533 299.201 312.271 299.455 312.807 299.963C313.344 300.471 313.661 301.114 313.756 301.89H312.549ZM310.593 304.032C310.181 304.032 309.793 304.119 309.429 304.291C309.064 304.454 308.767 304.708 308.537 305.053C308.317 305.389 308.206 305.801 308.206 306.29C308.206 307.018 308.417 307.613 308.839 308.073C309.261 308.523 309.865 308.748 310.651 308.748C311.322 308.748 311.854 308.542 312.247 308.13C312.649 307.708 312.851 307.143 312.851 306.434C312.851 305.686 312.659 305.101 312.275 304.679C311.892 304.248 311.331 304.032 310.593 304.032ZM321.057 296.268L317.118 312.257H315.824L319.749 296.268H321.057ZM327.967 296.268L324.028 312.257H322.734L326.659 296.268H327.967ZM336.402 300.553H331.355V303.831C331.575 303.524 331.901 303.275 332.333 303.083C332.764 302.882 333.229 302.781 333.727 302.781C334.523 302.781 335.17 302.949 335.668 303.285C336.167 303.611 336.521 304.037 336.732 304.564C336.953 305.082 337.063 305.633 337.063 306.218C337.063 306.908 336.934 307.526 336.675 308.073C336.416 308.619 336.018 309.05 335.481 309.367C334.954 309.683 334.298 309.841 333.512 309.841C332.505 309.841 331.69 309.582 331.067 309.065C330.444 308.547 330.066 307.857 329.931 306.994H331.211C331.336 307.541 331.599 307.967 332.002 308.274C332.404 308.581 332.912 308.734 333.526 308.734C334.283 308.734 334.854 308.509 335.237 308.058C335.62 307.598 335.812 306.994 335.812 306.247C335.812 305.499 335.62 304.924 335.237 304.521C334.854 304.109 334.288 303.903 333.54 303.903C333.032 303.903 332.587 304.028 332.203 304.277C331.829 304.516 331.556 304.847 331.384 305.269H330.147V299.402H336.402V300.553Z" fill="black"/>
<path d="M460.48 301.89C460.27 300.826 459.613 300.294 458.511 300.294C457.657 300.294 457.02 300.625 456.598 301.286C456.176 301.938 455.97 303.016 455.98 304.521C456.2 304.023 456.565 303.635 457.073 303.357C457.59 303.069 458.165 302.925 458.798 302.925C459.785 302.925 460.571 303.232 461.156 303.845C461.751 304.459 462.048 305.307 462.048 306.39C462.048 307.042 461.918 307.627 461.659 308.145C461.41 308.662 461.027 309.074 460.509 309.381C460.001 309.688 459.383 309.841 458.654 309.841C457.667 309.841 456.895 309.621 456.339 309.18C455.783 308.739 455.395 308.13 455.175 307.354C454.954 306.577 454.844 305.619 454.844 304.478C454.844 300.96 456.071 299.201 458.525 299.201C459.464 299.201 460.202 299.455 460.739 299.963C461.276 300.471 461.592 301.114 461.688 301.89H460.48ZM458.525 304.032C458.113 304.032 457.725 304.119 457.36 304.291C456.996 304.454 456.699 304.708 456.469 305.053C456.248 305.389 456.138 305.801 456.138 306.29C456.138 307.018 456.349 307.613 456.771 308.073C457.193 308.523 457.796 308.748 458.582 308.748C459.253 308.748 459.785 308.542 460.178 308.13C460.581 307.708 460.782 307.143 460.782 306.434C460.782 305.686 460.591 305.101 460.207 304.679C459.824 304.248 459.263 304.032 458.525 304.032ZM468.989 296.268L465.049 312.257H463.755L467.681 296.268H468.989ZM475.899 296.268L471.96 312.257H470.665L474.591 296.268H475.899ZM477.389 307.498V306.505L482.435 299.518H484.003V306.362H485.441V307.498H484.003V309.812H482.709V307.498H477.389ZM482.766 300.883L478.898 306.362H482.766V300.883Z" fill="black"/>
</svg>
