<svg width="615" height="388" viewBox="0 0 615 388" fill="none" xmlns="http://www.w3.org/2000/svg">
<rect width="615" height="388" fill="white"/>
<line x1="96.474" y1="73.1758" x2="96.474" y2="290.722" stroke="black" stroke-width="1.08773"/>
<line x1="92.1231" y1="286.917" x2="543.532" y2="286.917" stroke="black" stroke-width="1.08773"/>
<line x1="92.123" y1="195.546" x2="543.532" y2="195.546" stroke="black" stroke-width="1.08773"/>
<line x1="92.1231" y1="104.175" x2="543.532" y2="104.175" stroke="black" stroke-width="1.08773"/>
<line x1="92.123" y1="241.23" x2="543.532" y2="241.23" stroke="black" stroke-width="1.08773"/>
<line x1="92.1231" y1="149.862" x2="543.532" y2="149.862" stroke="black" stroke-width="1.08773"/>
<line x1="92.123" y1="264.073" x2="543.532" y2="264.073" stroke="black" stroke-width="1.08773"/>
<line x1="92.1231" y1="172.702" x2="543.532" y2="172.702" stroke="black" stroke-width="1.08773"/>
<line x1="92.123" y1="81.3311" x2="543.532" y2="81.3311" stroke="black" stroke-width="1.08773"/>
<line x1="92.123" y1="218.386" x2="543.532" y2="218.386" stroke="black" stroke-width="1.08773"/>
<line x1="92.1231" y1="127.019" x2="543.532" y2="127.019" stroke="black" stroke-width="1.08773"/>
<line x1="330.065" y1="290.723" x2="330.065" y2="286.916" stroke="black" stroke-width="0.543867"/>
<line x1="543.26" y1="290.723" x2="543.26" y2="286.916" stroke="black" stroke-width="0.543867"/>
<rect x="155.212" y="252.652" width="115.3" height="33.7197" fill="#4B79E9"/>
<rect x="387.987" y="93.2969" width="115.3" height="193.073" fill="#4B79E9"/>
<path d="M209.106 302.504C210.064 302.504 210.841 302.797 211.435 303.381C212.029 303.956 212.327 304.79 212.327 305.883V310.527H211.032V306.07C211.032 305.284 210.836 304.685 210.443 304.273C210.05 303.851 209.513 303.64 208.833 303.64C208.142 303.64 207.591 303.856 207.179 304.287C206.776 304.718 206.575 305.346 206.575 306.171V310.527H205.267V302.648H206.575V303.769C206.834 303.367 207.184 303.055 207.625 302.835C208.075 302.614 208.569 302.504 209.106 302.504ZM220.115 302.605C219.904 301.541 219.247 301.009 218.145 301.009C217.292 301.009 216.654 301.339 216.232 302.001C215.811 302.653 215.605 303.731 215.614 305.236C215.835 304.738 216.199 304.349 216.707 304.071C217.225 303.784 217.8 303.64 218.432 303.64C219.42 303.64 220.206 303.947 220.79 304.56C221.385 305.174 221.682 306.022 221.682 307.105C221.682 307.757 221.552 308.342 221.294 308.859C221.044 309.377 220.661 309.789 220.143 310.096C219.635 310.403 219.017 310.556 218.289 310.556C217.301 310.556 216.53 310.336 215.974 309.895C215.418 309.454 215.029 308.845 214.809 308.069C214.588 307.292 214.478 306.334 214.478 305.193C214.478 301.675 215.705 299.916 218.159 299.916C219.099 299.916 219.837 300.17 220.373 300.678C220.91 301.186 221.227 301.828 221.322 302.605H220.115ZM218.159 304.747C217.747 304.747 217.359 304.833 216.994 305.006C216.63 305.169 216.333 305.423 216.103 305.768C215.883 306.104 215.772 306.516 215.772 307.005C215.772 307.733 215.983 308.327 216.405 308.788C216.827 309.238 217.431 309.463 218.217 309.463C218.888 309.463 219.42 309.257 219.813 308.845C220.215 308.423 220.417 307.858 220.417 307.148C220.417 306.401 220.225 305.816 219.841 305.394C219.458 304.963 218.897 304.747 218.159 304.747Z" fill="black"/>
<path d="M82.1372 287.276C82.1372 285.628 82.4056 284.343 82.9424 283.423C83.4792 282.493 84.4186 282.028 85.7606 282.028C87.093 282.028 88.0276 282.493 88.5644 283.423C89.1012 284.343 89.3696 285.628 89.3696 287.276C89.3696 288.954 89.1012 290.258 88.5644 291.187C88.0276 292.117 87.093 292.582 85.7606 292.582C84.4186 292.582 83.4792 292.117 82.9424 291.187C82.4056 290.258 82.1372 288.954 82.1372 287.276ZM88.0755 287.276C88.0755 286.442 88.018 285.738 87.903 285.163C87.7975 284.578 87.5723 284.108 87.2272 283.754C86.8917 283.399 86.4028 283.222 85.7606 283.222C85.1087 283.222 84.6103 283.399 84.2652 283.754C83.9297 284.108 83.7044 284.578 83.5894 285.163C83.484 285.738 83.4313 286.442 83.4313 287.276C83.4313 288.139 83.484 288.863 83.5894 289.448C83.7044 290.032 83.9297 290.502 84.2652 290.857C84.6103 291.211 85.1087 291.389 85.7606 291.389C86.4028 291.389 86.8917 291.211 87.2272 290.857C87.5723 290.502 87.7975 290.032 87.903 289.448C88.018 288.863 88.0755 288.139 88.0755 287.276Z" fill="black"/>
<path d="M76.8973 260.536V259.343H79.6005V269.738H78.2777V260.536H76.8973ZM81.9199 264.433C81.9199 262.784 82.1883 261.499 82.7251 260.579C83.2619 259.649 84.2013 259.184 85.5433 259.184C86.8757 259.184 87.8103 259.649 88.3471 260.579C88.8839 261.499 89.1523 262.784 89.1523 264.433C89.1523 266.11 88.8839 267.414 88.3471 268.344C87.8103 269.273 86.8757 269.738 85.5433 269.738C84.2013 269.738 83.2619 269.273 82.7251 268.344C82.1883 267.414 81.9199 266.11 81.9199 264.433ZM87.8582 264.433C87.8582 263.599 87.8007 262.894 87.6857 262.319C87.5802 261.734 87.355 261.265 87.0099 260.91C86.6744 260.555 86.1855 260.378 85.5433 260.378C84.8915 260.378 84.393 260.555 84.0479 260.91C83.7124 261.265 83.4872 261.734 83.3721 262.319C83.2667 262.894 83.214 263.599 83.214 264.433C83.214 265.295 83.2667 266.019 83.3721 266.604C83.4872 267.188 83.7124 267.658 84.0479 268.013C84.393 268.368 84.8915 268.545 85.5433 268.545C86.1855 268.545 86.6744 268.368 87.0099 268.013C87.355 267.658 87.5802 267.188 87.6857 266.604C87.8007 266.019 87.8582 265.295 87.8582 264.433Z" fill="black"/>
<path d="M73.8211 245.849C75.0384 244.871 75.9922 244.071 76.6824 243.448C77.3725 242.815 77.9525 242.158 78.4222 241.478C78.9015 240.788 79.1411 240.112 79.1411 239.45C79.1411 238.827 78.9877 238.338 78.681 237.984C78.3838 237.62 77.8997 237.437 77.2288 237.437C76.5769 237.437 76.0689 237.643 75.7046 238.056C75.35 238.458 75.1583 239 75.1295 239.68H73.8642C73.9025 238.607 74.2284 237.778 74.8419 237.193C75.4554 236.608 76.2462 236.316 77.2144 236.316C78.2017 236.316 78.9829 236.589 79.5581 237.135C80.1428 237.682 80.4352 238.434 80.4352 239.393C80.4352 240.188 80.1955 240.965 79.7162 241.722C79.2465 242.47 78.7097 243.131 78.1058 243.706C77.5019 244.272 76.7303 244.933 75.7909 245.691H80.7371V246.783H73.8211V245.849ZM82.3215 241.593C82.3215 239.944 82.5899 238.66 83.1267 237.739C83.6635 236.81 84.6029 236.345 85.9449 236.345C87.2773 236.345 88.2119 236.81 88.7487 237.739C89.2855 238.66 89.5539 239.944 89.5539 241.593C89.5539 243.27 89.2855 244.574 88.7487 245.504C88.2119 246.434 87.2773 246.898 85.9449 246.898C84.6029 246.898 83.6635 246.434 83.1267 245.504C82.5899 244.574 82.3215 243.27 82.3215 241.593ZM88.2599 241.593C88.2599 240.759 88.2023 240.054 88.0873 239.479C87.9819 238.894 87.7566 238.425 87.4115 238.07C87.076 237.715 86.5872 237.538 85.9449 237.538C85.2931 237.538 84.7946 237.715 84.4496 238.07C84.1141 238.425 83.8888 238.894 83.7738 239.479C83.6683 240.054 83.6156 240.759 83.6156 241.593C83.6156 242.455 83.6683 243.179 83.7738 243.764C83.8888 244.349 84.1141 244.818 84.4496 245.173C84.7946 245.528 85.2931 245.705 85.9449 245.705C86.5872 245.705 87.076 245.528 87.4115 245.173C87.7566 244.818 87.9819 244.349 88.0873 243.764C88.2023 243.179 88.2599 242.455 88.2599 241.593Z" fill="black"/>
<path d="M73.4066 216.276C73.4737 215.394 73.814 214.704 74.4274 214.205C75.0409 213.707 75.8365 213.458 76.8143 213.458C77.4661 213.458 78.0268 213.578 78.4965 213.817C78.9758 214.047 79.3353 214.364 79.5749 214.766C79.8242 215.169 79.9488 215.624 79.9488 216.132C79.9488 216.726 79.7762 217.239 79.4311 217.671C79.0956 218.102 78.6547 218.38 78.1083 218.505V218.576C78.7314 218.73 79.2251 219.032 79.5893 219.482C79.9536 219.933 80.1357 220.522 80.1357 221.251C80.1357 221.797 80.0111 222.291 79.7618 222.732C79.5126 223.163 79.1388 223.504 78.6403 223.753C78.1419 224.002 77.5428 224.127 76.843 224.127C75.8269 224.127 74.993 223.863 74.3412 223.336C73.6893 222.799 73.3251 222.042 73.2484 221.064H74.5137C74.5808 221.639 74.8157 222.109 75.2183 222.473C75.6208 222.837 76.1576 223.019 76.8286 223.019C77.4996 223.019 78.0077 222.847 78.3528 222.502C78.7074 222.147 78.8848 221.692 78.8848 221.136C78.8848 220.417 78.6451 219.899 78.1658 219.583C77.6866 219.267 76.9628 219.108 75.9947 219.108H75.664V218.016H76.0091C76.8909 218.006 77.5571 217.862 78.0077 217.584C78.4582 217.297 78.6835 216.856 78.6835 216.262C78.6835 215.754 78.5157 215.346 78.1802 215.039C77.8543 214.733 77.3846 214.579 76.7711 214.579C76.1768 214.579 75.6975 214.733 75.3333 215.039C74.969 215.346 74.7533 215.758 74.6862 216.276H73.4066ZM81.9742 218.749C81.9742 217.1 82.2426 215.816 82.7794 214.896C83.3162 213.966 84.2556 213.501 85.5976 213.501C86.93 213.501 87.8646 213.966 88.4014 214.896C88.9382 215.816 89.2066 217.1 89.2066 218.749C89.2066 220.427 88.9382 221.73 88.4014 222.66C87.8646 223.59 86.93 224.055 85.5976 224.055C84.2556 224.055 83.3162 223.59 82.7794 222.66C82.2426 221.73 81.9742 220.427 81.9742 218.749ZM87.9125 218.749C87.9125 217.915 87.855 217.211 87.74 216.635C87.6345 216.051 87.4093 215.581 87.0642 215.226C86.7287 214.872 86.2398 214.694 85.5976 214.694C84.9458 214.694 84.4473 214.872 84.1022 215.226C83.7667 215.581 83.5415 216.051 83.4264 216.635C83.321 217.211 83.2683 217.915 83.2683 218.749C83.2683 219.612 83.321 220.335 83.4264 220.92C83.5415 221.505 83.7667 221.975 84.1022 222.329C84.4473 222.684 84.9458 222.861 85.5976 222.861C86.2398 222.861 86.7287 222.684 87.0642 222.329C87.4093 221.975 87.6345 221.505 87.74 220.92C87.855 220.335 87.9125 219.612 87.9125 218.749Z" fill="black"/>
<path d="M72.5751 198.896V197.904L77.622 190.916H79.1892V197.76H80.6271V198.896H79.1892V201.211H77.8952V198.896H72.5751ZM77.9527 192.282L74.0849 197.76H77.9527V192.282ZM82.0061 195.905C82.0061 194.257 82.2745 192.972 82.8113 192.052C83.3481 191.122 84.2875 190.657 85.6294 190.657C86.9619 190.657 87.8965 191.122 88.4332 192.052C88.97 192.972 89.2384 194.257 89.2384 195.905C89.2384 197.583 88.97 198.886 88.4332 199.816C87.8965 200.746 86.9619 201.211 85.6294 201.211C84.2875 201.211 83.3481 200.746 82.8113 199.816C82.2745 198.886 82.0061 197.583 82.0061 195.905ZM87.9444 195.905C87.9444 195.071 87.8869 194.367 87.7718 193.792C87.6664 193.207 87.4411 192.737 87.0961 192.383C86.7606 192.028 86.2717 191.851 85.6294 191.851C84.9776 191.851 84.4792 192.028 84.1341 192.383C83.7986 192.737 83.5733 193.207 83.4583 193.792C83.3529 194.367 83.3001 195.071 83.3001 195.905C83.3001 196.768 83.3529 197.492 83.4583 198.076C83.5733 198.661 83.7986 199.131 84.1341 199.486C84.4792 199.84 84.9776 200.018 85.6294 200.018C86.2717 200.018 86.7606 199.84 87.0961 199.486C87.4411 199.131 87.6664 198.661 87.7718 198.076C87.8869 197.492 87.9444 196.768 87.9444 195.905Z" fill="black"/>
<path d="M79.5199 169.107H74.4731V172.386C74.6936 172.079 75.0195 171.83 75.4508 171.638C75.8822 171.437 76.3471 171.336 76.8455 171.336C77.6412 171.336 78.2882 171.504 78.7866 171.839C79.2851 172.165 79.6398 172.592 79.8506 173.119C80.0711 173.637 80.1814 174.188 80.1814 174.773C80.1814 175.463 80.0519 176.081 79.7931 176.627C79.5343 177.174 79.1365 177.605 78.5997 177.921C78.0725 178.238 77.4159 178.396 76.6299 178.396C75.6234 178.396 74.8086 178.137 74.1855 177.62C73.5625 177.102 73.1838 176.412 73.0496 175.549H74.3293C74.4539 176.095 74.7175 176.522 75.1201 176.829C75.5227 177.135 76.0308 177.289 76.6442 177.289C77.4015 177.289 77.9719 177.064 78.3553 176.613C78.7387 176.153 78.9304 175.549 78.9304 174.801C78.9304 174.054 78.7387 173.479 78.3553 173.076C77.9719 172.664 77.4063 172.458 76.6586 172.458C76.1506 172.458 75.7049 172.582 75.3214 172.831C74.9476 173.071 74.6744 173.402 74.5019 173.824H73.2653V167.957H79.5199V169.107ZM81.992 173.062C81.992 171.413 82.2604 170.128 82.7972 169.208C83.334 168.278 84.2734 167.813 85.6154 167.813C86.9478 167.813 87.8824 168.278 88.4192 169.208C88.956 170.128 89.2244 171.413 89.2244 173.062C89.2244 174.739 88.956 176.043 88.4192 176.972C87.8824 177.902 86.9478 178.367 85.6154 178.367C84.2734 178.367 83.334 177.902 82.7972 176.972C82.2604 176.043 81.992 174.739 81.992 173.062ZM87.9303 173.062C87.9303 172.228 87.8728 171.523 87.7578 170.948C87.6524 170.363 87.4271 169.893 87.082 169.539C86.7465 169.184 86.2576 169.007 85.6154 169.007C84.9636 169.007 84.4651 169.184 84.12 169.539C83.7845 169.893 83.5593 170.363 83.4443 170.948C83.3388 171.523 83.2861 172.228 83.2861 173.062C83.2861 173.924 83.3388 174.648 83.4443 175.233C83.5593 175.817 83.7845 176.287 84.12 176.642C84.4651 176.996 84.9636 177.174 85.6154 177.174C86.2576 177.174 86.7465 176.996 87.082 176.642C87.4271 176.287 87.6524 175.817 87.7578 175.233C87.8728 174.648 87.9303 173.924 87.9303 173.062Z" fill="black"/>
<path d="M80.3777 123.313L76.3804 132.688H75.0576L79.1123 123.442H73.5623V122.321H80.3777V123.313ZM81.9003 127.382C81.9003 125.733 82.1687 124.449 82.7055 123.528C83.2423 122.599 84.1817 122.134 85.5237 122.134C86.8561 122.134 87.7907 122.599 88.3275 123.528C88.8643 124.449 89.1327 125.733 89.1327 127.382C89.1327 129.059 88.8643 130.363 88.3275 131.293C87.7907 132.223 86.8561 132.688 85.5237 132.688C84.1817 132.688 83.2423 132.223 82.7055 131.293C82.1687 130.363 81.9003 129.059 81.9003 127.382ZM87.8386 127.382C87.8386 126.548 87.7811 125.843 87.6661 125.268C87.5606 124.683 87.3354 124.214 86.9903 123.859C86.6548 123.504 86.1659 123.327 85.5237 123.327C84.8719 123.327 84.3734 123.504 84.0283 123.859C83.6928 124.214 83.4676 124.683 83.3525 125.268C83.2471 125.843 83.1944 126.548 83.1944 127.382C83.1944 128.245 83.2471 128.968 83.3525 129.553C83.4676 130.138 83.6928 130.607 84.0283 130.962C84.3734 131.317 84.8719 131.494 85.5237 131.494C86.1659 131.494 86.6548 131.317 86.9903 130.962C87.3354 130.607 87.5606 130.138 87.6661 129.553C87.7811 128.968 87.8386 128.245 87.8386 127.382Z" fill="black"/>
<path d="M78.686 147.605C78.4751 146.541 77.8185 146.009 76.7161 146.009C75.863 146.009 75.2256 146.339 74.8038 147.001C74.382 147.653 74.1759 148.731 74.1855 150.236C74.406 149.738 74.7703 149.349 75.2783 149.071C75.7959 148.784 76.3711 148.64 77.0037 148.64C77.991 148.64 78.7771 148.947 79.3618 149.56C79.9561 150.174 80.2532 151.022 80.2532 152.105C80.2532 152.757 80.1238 153.342 79.865 153.859C79.6158 154.377 79.2324 154.789 78.7147 155.096C78.2067 155.403 77.5884 155.556 76.8599 155.556C75.8726 155.556 75.101 155.336 74.545 154.895C73.989 154.454 73.6008 153.845 73.3803 153.069C73.1599 152.292 73.0496 151.334 73.0496 150.193C73.0496 146.675 74.2766 144.916 76.7305 144.916C77.6699 144.916 78.408 145.17 78.9448 145.678C79.4816 146.186 79.7979 146.828 79.8938 147.605H78.686ZM76.7305 149.747C76.3183 149.747 75.9301 149.833 75.5659 150.006C75.2016 150.169 74.9045 150.423 74.6744 150.768C74.4539 151.104 74.3437 151.516 74.3437 152.005C74.3437 152.733 74.5546 153.327 74.9763 153.788C75.3981 154.238 76.002 154.463 76.788 154.463C77.459 154.463 77.991 154.257 78.384 153.845C78.7866 153.423 78.9879 152.858 78.9879 152.148C78.9879 151.401 78.7962 150.816 78.4128 150.394C78.0294 149.963 77.4686 149.747 76.7305 149.747ZM82.0903 150.222C82.0903 148.573 82.3587 147.288 82.8955 146.368C83.4323 145.438 84.3717 144.974 85.7137 144.974C87.0461 144.974 87.9807 145.438 88.5175 146.368C89.0543 147.288 89.3227 148.573 89.3227 150.222C89.3227 151.899 89.0543 153.203 88.5175 154.133C87.9807 155.062 87.0461 155.527 85.7137 155.527C84.3717 155.527 83.4323 155.062 82.8955 154.133C82.3587 153.203 82.0903 151.899 82.0903 150.222ZM88.0286 150.222C88.0286 149.388 87.9711 148.683 87.8561 148.108C87.7506 147.523 87.5254 147.054 87.1803 146.699C86.8448 146.344 86.3559 146.167 85.7137 146.167C85.0619 146.167 84.5634 146.344 84.2183 146.699C83.8828 147.054 83.6576 147.523 83.5425 148.108C83.4371 148.683 83.3844 149.388 83.3844 150.222C83.3844 151.084 83.4371 151.808 83.5425 152.393C83.6576 152.978 83.8828 153.447 84.2183 153.802C84.5634 154.157 85.0619 154.334 85.7137 154.334C86.3559 154.334 86.8448 154.157 87.1803 153.802C87.5254 153.447 87.7506 152.978 87.8561 152.393C87.9711 151.808 88.0286 151.084 88.0286 150.222Z" fill="black"/>
<path d="M74.7894 104.437C74.2526 104.227 73.8404 103.92 73.5529 103.517C73.2653 103.115 73.1215 102.626 73.1215 102.051C73.1215 101.533 73.2509 101.068 73.5097 100.656C73.7686 100.234 74.152 99.9034 74.66 99.6638C75.1776 99.4146 75.8007 99.2899 76.5292 99.2899C77.2577 99.2899 77.876 99.4146 78.384 99.6638C78.9017 99.9034 79.2899 100.234 79.5487 100.656C79.8171 101.068 79.9513 101.533 79.9513 102.051C79.9513 102.607 79.8027 103.095 79.5056 103.517C79.2084 103.929 78.801 104.236 78.2834 104.437C78.8777 104.62 79.3474 104.941 79.6925 105.401C80.0472 105.851 80.2245 106.398 80.2245 107.04C80.2245 107.663 80.0711 108.209 79.7644 108.679C79.4576 109.139 79.0215 109.499 78.4559 109.757C77.9 110.007 77.2577 110.131 76.5292 110.131C75.8007 110.131 75.1585 110.007 74.6025 109.757C74.0561 109.499 73.6296 109.139 73.3228 108.679C73.0161 108.209 72.8627 107.663 72.8627 107.04C72.8627 106.398 73.0353 105.847 73.3803 105.386C73.7254 104.926 74.1951 104.61 74.7894 104.437ZM78.686 102.209C78.686 101.624 78.4943 101.174 78.1109 100.857C77.7274 100.541 77.2002 100.383 76.5292 100.383C75.8678 100.383 75.3454 100.541 74.962 100.857C74.5785 101.174 74.3868 101.629 74.3868 102.223C74.3868 102.76 74.5833 103.191 74.9763 103.517C75.3789 103.843 75.8966 104.006 76.5292 104.006C77.1715 104.006 77.6891 103.843 78.0821 103.517C78.4847 103.182 78.686 102.746 78.686 102.209ZM76.5292 105.013C75.8199 105.013 75.2399 105.18 74.7894 105.516C74.3389 105.842 74.1136 106.335 74.1136 106.997C74.1136 107.61 74.3293 108.104 74.7607 108.478C75.2016 108.852 75.7911 109.039 76.5292 109.039C77.2673 109.039 77.852 108.852 78.2834 108.478C78.7147 108.104 78.9304 107.61 78.9304 106.997C78.9304 106.355 78.71 105.866 78.269 105.53C77.8281 105.185 77.2481 105.013 76.5292 105.013ZM82.0342 104.538C82.0342 102.889 82.3026 101.605 82.8393 100.685C83.3761 99.7549 84.3155 99.2899 85.6575 99.2899C86.9899 99.2899 87.9245 99.7549 88.4613 100.685C88.9981 101.605 89.2665 102.889 89.2665 104.538C89.2665 106.216 88.9981 107.519 88.4613 108.449C87.9245 109.379 86.9899 109.844 85.6575 109.844C84.3155 109.844 83.3761 109.379 82.8393 108.449C82.3026 107.519 82.0342 106.216 82.0342 104.538ZM87.9725 104.538C87.9725 103.704 87.9149 103 87.7999 102.424C87.6945 101.84 87.4692 101.37 87.1241 101.015C86.7886 100.661 86.2998 100.483 85.6575 100.483C85.0057 100.483 84.5073 100.661 84.1622 101.015C83.8267 101.37 83.6014 101.84 83.4864 102.424C83.3809 103 83.3282 103.704 83.3282 104.538C83.3282 105.401 83.3809 106.125 83.4864 106.709C83.6014 107.294 83.8267 107.764 84.1622 108.118C84.5073 108.473 85.0057 108.65 85.6575 108.65C86.2998 108.65 86.7886 108.473 87.1241 108.118C87.4692 107.764 87.6945 107.294 87.7999 106.709C87.9149 106.125 87.9725 105.401 87.9725 104.538Z" fill="black"/>
<path d="M74.5737 84.2106C74.6696 84.757 74.8901 85.1787 75.2352 85.4759C75.5898 85.773 76.0643 85.9216 76.6586 85.9216C77.4542 85.9216 78.039 85.6101 78.4128 84.987C78.7962 84.3639 78.9784 83.3143 78.9592 81.8381C78.7579 82.2695 78.4224 82.6098 77.9527 82.859C77.483 83.0986 76.9606 83.2185 76.3854 83.2185C75.7432 83.2185 75.1681 83.0891 74.66 82.8302C74.1616 82.5618 73.7686 82.1736 73.481 81.6656C73.1934 81.1575 73.0496 80.5441 73.0496 79.8251C73.0496 78.7995 73.3468 77.9751 73.9411 77.352C74.5354 76.7194 75.3789 76.4031 76.4717 76.4031C77.8137 76.4031 78.7531 76.8392 79.2899 77.7115C79.8363 78.5838 80.1095 79.8827 80.1095 81.6081C80.1095 82.8159 79.9992 83.8128 79.7788 84.5988C79.5679 85.3848 79.2036 85.9839 78.686 86.3961C78.178 86.8083 77.4782 87.0144 76.5867 87.0144C75.609 87.0144 74.8469 86.7508 74.3006 86.2236C73.7542 85.6964 73.4426 85.0254 73.366 84.2106H74.5737ZM76.6011 82.1113C77.2434 82.1113 77.7706 81.9148 78.1827 81.5218C78.5949 81.1192 78.801 80.5776 78.801 79.897C78.801 79.1781 78.5997 78.5982 78.1971 78.1572C77.7945 77.7163 77.229 77.4958 76.5005 77.4958C75.8295 77.4958 75.2927 77.7067 74.8901 78.1285C74.4971 78.5502 74.3006 79.1062 74.3006 79.7964C74.3006 80.4961 74.4971 81.0569 74.8901 81.4787C75.2831 81.9004 75.8534 82.1113 76.6011 82.1113ZM82.0201 81.6943C82.0201 80.0456 82.2885 78.7611 82.8253 77.8409C83.3621 76.9111 84.3015 76.4462 85.6435 76.4462C86.9759 76.4462 87.9105 76.9111 88.4473 77.8409C88.9841 78.7611 89.2525 80.0456 89.2525 81.6943C89.2525 83.3718 88.9841 84.6755 88.4473 85.6053C87.9105 86.5351 86.9759 87 85.6435 87C84.3015 87 83.3621 86.5351 82.8253 85.6053C82.2885 84.6755 82.0201 83.3718 82.0201 81.6943ZM87.9584 81.6943C87.9584 80.8604 87.9009 80.1558 87.7859 79.5807C87.6804 78.996 87.4552 78.5263 87.1101 78.1716C86.7746 77.8169 86.2857 77.6396 85.6435 77.6396C84.9917 77.6396 84.4932 77.8169 84.1481 78.1716C83.8126 78.5263 83.5874 78.996 83.4723 79.5807C83.3669 80.1558 83.3142 80.8604 83.3142 81.6943C83.3142 82.5571 83.3669 83.2808 83.4723 83.8655C83.5874 84.4502 83.8126 84.9199 84.1481 85.2746C84.4932 85.6293 84.9917 85.8066 85.6435 85.8066C86.2857 85.8066 86.7746 85.6293 87.1101 85.2746C87.4552 84.9199 87.6804 84.4502 87.7859 83.8655C87.9009 83.2808 87.9584 82.5571 87.9584 81.6943Z" fill="black"/>
<path d="M441.337 302.504C442.295 302.504 443.072 302.797 443.666 303.381C444.26 303.956 444.558 304.79 444.558 305.883V310.527H443.264V306.07C443.264 305.284 443.067 304.685 442.674 304.273C442.281 303.851 441.744 303.64 441.064 303.64C440.373 303.64 439.822 303.856 439.41 304.287C439.008 304.718 438.806 305.346 438.806 306.171V310.527H437.498V302.648H438.806V303.769C439.065 303.367 439.415 303.055 439.856 302.835C440.306 302.614 440.8 302.504 441.337 302.504ZM453.18 301.268H448.133V304.546C448.353 304.239 448.679 303.99 449.111 303.798C449.542 303.597 450.007 303.496 450.505 303.496C451.301 303.496 451.948 303.664 452.446 304C452.945 304.325 453.299 304.752 453.51 305.279C453.731 305.797 453.841 306.348 453.841 306.933C453.841 307.623 453.712 308.241 453.453 308.788C453.194 309.334 452.796 309.765 452.259 310.082C451.732 310.398 451.076 310.556 450.29 310.556C449.283 310.556 448.468 310.297 447.845 309.78C447.222 309.262 446.844 308.572 446.709 307.709H447.989C448.114 308.256 448.377 308.682 448.78 308.989C449.182 309.296 449.69 309.449 450.304 309.449C451.061 309.449 451.632 309.224 452.015 308.773C452.398 308.313 452.59 307.709 452.59 306.961C452.59 306.214 452.398 305.639 452.015 305.236C451.632 304.824 451.066 304.618 450.318 304.618C449.81 304.618 449.365 304.742 448.981 304.992C448.607 305.231 448.334 305.562 448.162 305.984H446.925V300.117H453.18V301.268Z" fill="black"/>
</svg>
