<svg width="414" height="259" viewBox="0 0 414 259" fill="none" xmlns="http://www.w3.org/2000/svg">
<g clip-path="url(#clip0_2400_101)">
<rect width="414" height="259" fill="#F8F8F8"/>
<path d="M120.409 124.781L150.347 57.1074H306.323L337.518 124.781H120.409Z" fill="#E9CCC3" stroke="black" stroke-width="0.503149"/>
<path d="M131.227 185.159L126.447 199.75H183.303L185.064 185.159H131.227Z" fill="#979797"/>
<path d="M139.811 157.989L135.503 171.071H186.747L188.334 157.989H139.811Z" fill="#979797"/>
<path d="M146.99 134.341L143.051 146.416H189.902L191.353 134.341H146.99Z" fill="#979797"/>
<path d="M153.664 113.209L150.095 125.284H192.554L193.869 113.209H153.664Z" fill="#979797"/>
<path d="M159.374 96.1015L156.133 106.164H194.687L195.882 96.1015H159.374Z" fill="#979797"/>
<path d="M164.621 80.0007L161.667 89.0574H196.805L197.894 80.0007H164.621Z" fill="#979797"/>
<path d="M168.904 66.9188L166.196 74.9692H198.406L199.404 66.9188H168.904Z" fill="#979797"/>
<path d="M172.261 56.3527L169.717 63.8999H199.975L200.913 56.3527H172.261Z" fill="#979797"/>
<path d="M174.724 47.296L173.24 51.8243H201.302L201.808 47.296H174.724Z" fill="#D0D1CF"/>
<path d="M177.517 39.4972L176.259 43.2708H202.171L202.674 39.4972H177.517Z" fill="#D0D1CF"/>
<path d="M180.032 31.6984L178.774 35.472H203.177L203.68 31.6984H180.032Z" fill="#D0D1CF"/>
<path d="M182.045 25.1574L180.787 28.9311H203.932L204.435 25.1574H182.045Z" fill="#D0D1CF"/>
<path d="M184.561 17.1071L183.303 20.8807H204.938L205.441 17.1071H184.561Z" fill="#D0D1CF"/>
<path d="M326.449 185.159L331.229 199.75H274.373L272.612 185.159H326.449Z" fill="#D0D1CF"/>
<path d="M317.864 157.989L322.172 171.071H270.928L269.341 157.989H317.864Z" fill="#D0D1CF"/>
<path d="M310.686 134.341L314.625 146.416H267.773L266.322 134.341H310.686Z" fill="#D0D1CF"/>
<path d="M304.011 113.209L307.581 125.284H265.122L263.807 113.209H304.011Z" fill="#979797"/>
<path d="M298.302 96.1015L301.543 106.164H262.988L261.794 96.1015H298.302Z" fill="#979797"/>
<path d="M293.054 80.0007L296.008 89.0574H260.869L259.781 80.0007H293.054Z" fill="#979797"/>
<path d="M288.772 66.9188L291.48 74.9692H259.27L258.272 66.9188H288.772Z" fill="#979797"/>
<path d="M285.414 56.3527L287.958 63.8999H257.699L256.762 56.3527H285.414Z" fill="#979797"/>
<path d="M282.953 47.296L284.436 51.8243H256.374L255.869 47.296H282.953Z" fill="#D0D1CF"/>
<path d="M280.159 39.4972L281.417 43.2708H255.505L255.002 39.4972H280.159Z" fill="#D0D1CF"/>
<path d="M277.643 31.6984L278.901 35.472H254.499L253.995 31.6984H277.643Z" fill="#D0D1CF"/>
<path d="M275.631 25.1574L276.889 28.9311H253.744L253.241 25.1574H275.631Z" fill="#D0D1CF"/>
<path d="M273.115 17.1071L274.373 20.8807H252.737L252.234 17.1071H273.115Z" fill="#D0D1CF"/>
<path d="M160.912 53.3338L103.05 199.499H120.912L169.718 54.8432H216.259V53.3338H160.912Z" fill="#C16066"/>
<path d="M245.945 130.064V134.592H328.21L281.165 18.1133H275.379L312.864 130.064H245.945Z" fill="#C16066"/>
<path d="M212.882 79.5593C213.377 79.6649 213.775 79.9125 214.076 80.3023C214.376 80.6839 214.526 81.1224 214.526 81.6177C214.526 82.3322 214.275 82.9006 213.771 83.3229C213.276 83.737 212.582 83.944 211.689 83.944H207.706V75.3939H211.555C212.423 75.3939 213.101 75.5928 213.589 75.9907C214.084 76.3886 214.332 76.9285 214.332 77.6106C214.332 78.114 214.198 78.5322 213.93 78.8651C213.67 79.198 213.321 79.4294 212.882 79.5593ZM209.789 78.8529H211.153C211.494 78.8529 211.754 78.7798 211.932 78.6337C212.119 78.4794 212.212 78.2561 212.212 77.9638C212.212 77.6715 212.119 77.4482 211.932 77.2939C211.754 77.1396 211.494 77.0625 211.153 77.0625H209.789V78.8529ZM211.323 82.2632C211.672 82.2632 211.94 82.1861 212.127 82.0318C212.322 81.8694 212.419 81.638 212.419 81.3376C212.419 81.0371 212.318 80.8017 212.115 80.6311C211.92 80.4606 211.648 80.3754 211.299 80.3754H209.789V82.2632H211.323ZM217.878 82.3363H220.606V83.944H215.795V75.3939H217.878V82.3363ZM223.743 77.0625V78.792H226.532V80.3997H223.743V82.2754H226.898V83.944H221.661V75.3939H226.898V77.0625H223.743ZM235.96 83.944H233.877L230.394 78.6702V83.944H228.311V75.3939H230.394L233.877 80.692V75.3939H235.96V83.944ZM240.734 75.3939C241.635 75.3939 242.423 75.5725 243.096 75.9298C243.77 76.2871 244.29 76.7905 244.655 77.4401C245.029 78.0815 245.216 78.8245 245.216 79.669C245.216 80.5053 245.029 81.2483 244.655 81.8978C244.29 82.5474 243.766 83.0508 243.084 83.4081C242.41 83.7654 241.627 83.944 240.734 83.944H237.53V75.3939H240.734ZM240.6 82.1414C241.387 82.1414 242 81.9263 242.439 81.4959C242.877 81.0656 243.096 80.4566 243.096 79.669C243.096 78.8813 242.877 78.2683 242.439 77.8298C242 77.3914 241.387 77.1721 240.6 77.1721H239.613V82.1414H240.6ZM209.923 100.239H213.601V101.944H207.56V100.361L211.214 95.099H207.56V93.3939H213.601V94.9772L209.923 100.239ZM219.066 102.029C218.262 102.029 217.523 101.843 216.849 101.469C216.183 101.096 215.651 100.576 215.254 99.91C214.864 99.2361 214.669 98.4809 214.669 97.6446C214.669 96.8083 214.864 96.0572 215.254 95.3914C215.651 94.7255 216.183 94.2059 216.849 93.8324C217.523 93.4588 218.262 93.2721 219.066 93.2721C219.87 93.2721 220.605 93.4588 221.27 93.8324C221.944 94.2059 222.472 94.7255 222.854 95.3914C223.243 96.0572 223.438 96.8083 223.438 97.6446C223.438 98.4809 223.243 99.2361 222.854 99.91C222.464 100.576 221.936 101.096 221.27 101.469C220.605 101.843 219.87 102.029 219.066 102.029ZM219.066 100.129C219.748 100.129 220.292 99.9019 220.698 99.4472C221.112 98.9925 221.319 98.3916 221.319 97.6446C221.319 96.8895 221.112 96.2886 220.698 95.842C220.292 95.3873 219.748 95.1599 219.066 95.1599C218.376 95.1599 217.824 95.3832 217.409 95.8298C217.003 96.2764 216.8 96.8813 216.8 97.6446C216.8 98.3997 217.003 99.0047 217.409 99.4594C217.824 99.906 218.376 100.129 219.066 100.129ZM232.307 101.944H230.224L226.741 96.6702V101.944H224.658V93.3939H226.741L230.224 98.692V93.3939H232.307V101.944ZM235.96 95.0625V96.792H238.749V98.3997H235.96V100.275H239.115V101.944H233.877V93.3939H239.115V95.0625H235.96Z" fill="#C16066"/>
<path d="M139.85 224.826H138.461L134.283 218.505V224.826H132.895V216.349H134.283L138.461 222.658V216.349H139.85V224.826ZM143.122 217.481V219.966H146.045V221.099H143.122V223.693H146.411V224.826H141.734V216.349H146.411V217.481H143.122ZM153.285 223.096H149.741L149.132 224.826H147.682L150.715 216.349H152.323L155.356 224.826H153.894L153.285 223.096ZM152.895 221.964L151.519 218.03L150.131 221.964H152.895ZM161.132 224.826L159.183 221.44H158.124V224.826H156.735V216.361H159.658C160.308 216.361 160.856 216.475 161.303 216.702C161.757 216.929 162.094 217.234 162.314 217.615C162.541 217.997 162.655 218.423 162.655 218.894C162.655 219.446 162.492 219.95 162.167 220.405C161.851 220.851 161.359 221.156 160.694 221.318L162.789 224.826H161.132ZM158.124 220.331H159.658C160.178 220.331 160.568 220.202 160.828 219.942C161.096 219.682 161.23 219.333 161.23 218.894C161.23 218.456 161.1 218.115 160.84 217.871C160.58 217.619 160.186 217.494 159.658 217.494H158.124V220.331Z" fill="#979797"/>
<path d="M181.824 2.29727C182.325 2.29727 182.763 2.39426 183.137 2.58823C183.516 2.77769 183.807 3.05286 184.01 3.41374C184.217 3.77011 184.321 4.18738 184.321 4.66554C184.321 5.14371 184.217 5.55872 184.01 5.91058C183.807 6.26243 183.516 6.53309 183.137 6.72255C182.763 6.90751 182.325 6.99998 181.824 6.99998H180.288V2.29727H181.824ZM181.824 6.3707C182.375 6.3707 182.796 6.22183 183.09 5.92411C183.383 5.62638 183.529 5.20686 183.529 4.66554C183.529 4.11971 183.383 3.69342 183.09 3.38668C182.796 3.07993 182.375 2.92655 181.824 2.92655H181.06V6.3707H181.824ZM185.891 2.29727V6.99998H185.119V2.29727H185.891ZM188.487 7.04735C188.171 7.04735 187.887 6.99321 187.634 6.88495C187.382 6.77218 187.183 6.61429 187.039 6.4113C186.895 6.2083 186.822 5.97147 186.822 5.70082H187.648C187.666 5.90381 187.745 6.07072 187.885 6.20154C188.029 6.33235 188.23 6.39776 188.487 6.39776C188.753 6.39776 188.961 6.33461 189.109 6.2083C189.258 6.07748 189.333 5.91058 189.333 5.70758C189.333 5.5497 189.285 5.42113 189.191 5.32189C189.1 5.22265 188.985 5.14596 188.846 5.09183C188.71 5.0377 188.521 4.97906 188.277 4.9159C187.97 4.8347 187.72 4.75351 187.526 4.67231C187.337 4.5866 187.174 4.45578 187.039 4.27985C186.904 4.10392 186.836 3.86935 186.836 3.57614C186.836 3.30548 186.904 3.06865 187.039 2.86566C187.174 2.66266 187.364 2.50703 187.607 2.39877C187.851 2.2905 188.133 2.23637 188.453 2.23637C188.909 2.23637 189.281 2.3514 189.57 2.58146C189.863 2.80701 190.025 3.11827 190.057 3.51524H189.204C189.191 3.34382 189.109 3.19721 188.961 3.07542C188.812 2.95362 188.615 2.89272 188.372 2.89272C188.151 2.89272 187.97 2.94911 187.831 3.06188C187.691 3.17466 187.621 3.33705 187.621 3.54907C187.621 3.69342 187.664 3.81296 187.749 3.9077C187.84 3.99792 187.952 4.07009 188.088 4.12422C188.223 4.17836 188.408 4.237 188.643 4.30015C188.954 4.38586 189.206 4.47157 189.4 4.55728C189.599 4.64299 189.766 4.77606 189.901 4.9565C190.041 5.13243 190.111 5.36926 190.111 5.66698C190.111 5.90607 190.045 6.13161 189.915 6.34363C189.788 6.55565 189.601 6.72707 189.353 6.85788C189.109 6.98419 188.821 7.04735 188.487 7.04735ZM194.093 2.29727V2.92655H192.841V6.99998H192.07V2.92655H190.811V2.29727H194.093ZM197.743 6.03914H195.774L195.436 6.99998H194.631L196.316 2.2905H197.209L198.894 6.99998H198.082L197.743 6.03914ZM197.527 5.40986L196.762 3.22428L195.991 5.40986H197.527ZM203.524 6.99998H202.752L200.431 3.48817V6.99998H199.66V2.2905H200.431L202.752 5.79555V2.2905H203.524V6.99998ZM204.313 4.63848C204.313 4.17836 204.419 3.7656 204.631 3.40021C204.848 3.03482 205.139 2.75063 205.504 2.54763C205.874 2.34013 206.278 2.23637 206.715 2.23637C207.216 2.23637 207.66 2.36042 208.048 2.60853C208.441 2.85212 208.725 3.19947 208.901 3.65057H207.974C207.852 3.40246 207.683 3.21751 207.466 3.09572C207.25 2.97392 207 2.91302 206.715 2.91302C206.404 2.91302 206.127 2.98294 205.883 3.12278C205.64 3.26262 205.448 3.46336 205.308 3.725C205.173 3.98664 205.105 4.29113 205.105 4.63848C205.105 4.98582 205.173 5.29031 205.308 5.55195C205.448 5.81359 205.64 6.01658 205.883 6.16094C206.127 6.30078 206.404 6.3707 206.715 6.3707C207 6.3707 207.25 6.3098 207.466 6.188C207.683 6.06621 207.852 5.88125 207.974 5.63315H208.901C208.725 6.08425 208.441 6.4316 208.048 6.67519C207.66 6.91878 207.216 7.04058 206.715 7.04058C206.273 7.04058 205.87 6.93908 205.504 6.73609C205.139 6.52858 204.848 6.24213 204.631 5.87674C204.419 5.51135 204.313 5.0986 204.313 4.63848ZM210.609 2.91979V4.30015H212.233V4.92944H210.609V6.3707H212.436V6.99998H209.838V2.2905H212.436V2.91979H210.609Z" fill="#979797"/>
<path d="M247.737 2.29727C248.238 2.29727 248.675 2.39426 249.05 2.58823C249.428 2.77769 249.719 3.05286 249.922 3.41374C250.13 3.77011 250.234 4.18738 250.234 4.66554C250.234 5.14371 250.13 5.55872 249.922 5.91058C249.719 6.26243 249.428 6.53309 249.05 6.72255C248.675 6.90751 248.238 6.99998 247.737 6.99998H246.201V2.29727H247.737ZM247.737 6.3707C248.287 6.3707 248.709 6.22183 249.002 5.92411C249.295 5.62638 249.442 5.20686 249.442 4.66554C249.442 4.11971 249.295 3.69342 249.002 3.38668C248.709 3.07993 248.287 2.92655 247.737 2.92655H246.972V6.3707H247.737ZM251.803 2.29727V6.99998H251.032V2.29727H251.803ZM254.4 7.04735C254.084 7.04735 253.8 6.99321 253.547 6.88495C253.294 6.77218 253.096 6.61429 252.951 6.4113C252.807 6.2083 252.735 5.97147 252.735 5.70082H253.56C253.579 5.90381 253.657 6.07072 253.797 6.20154C253.942 6.33235 254.142 6.39776 254.4 6.39776C254.666 6.39776 254.873 6.33461 255.022 6.2083C255.171 6.07748 255.245 5.91058 255.245 5.70758C255.245 5.5497 255.198 5.42113 255.103 5.32189C255.013 5.22265 254.898 5.14596 254.758 5.09183C254.623 5.0377 254.433 4.97906 254.19 4.9159C253.883 4.8347 253.633 4.75351 253.439 4.67231C253.249 4.5866 253.087 4.45578 252.951 4.27985C252.816 4.10392 252.748 3.86935 252.748 3.57614C252.748 3.30548 252.816 3.06865 252.951 2.86566C253.087 2.66266 253.276 2.50703 253.52 2.39877C253.763 2.2905 254.045 2.23637 254.366 2.23637C254.821 2.23637 255.193 2.3514 255.482 2.58146C255.775 2.80701 255.938 3.11827 255.969 3.51524H255.117C255.103 3.34382 255.022 3.19721 254.873 3.07542C254.724 2.95362 254.528 2.89272 254.284 2.89272C254.063 2.89272 253.883 2.94911 253.743 3.06188C253.603 3.17466 253.533 3.33705 253.533 3.54907C253.533 3.69342 253.576 3.81296 253.662 3.9077C253.752 3.99792 253.865 4.07009 254 4.12422C254.136 4.17836 254.321 4.237 254.555 4.30015C254.866 4.38586 255.119 4.47157 255.313 4.55728C255.511 4.64299 255.678 4.77606 255.814 4.9565C255.954 5.13243 256.023 5.36926 256.023 5.66698C256.023 5.90607 255.958 6.13161 255.827 6.34363C255.701 6.55565 255.514 6.72707 255.266 6.85788C255.022 6.98419 254.733 7.04735 254.4 7.04735ZM260.006 2.29727V2.92655H258.754V6.99998H257.982V2.92655H256.724V2.29727H260.006ZM263.656 6.03914H261.687L261.348 6.99998H260.543L262.228 2.2905H263.121L264.806 6.99998H263.994L263.656 6.03914ZM263.439 5.40986L262.675 3.22428L261.903 5.40986H263.439ZM269.436 6.99998H268.665L266.344 3.48817V6.99998H265.573V2.2905H266.344L268.665 5.79555V2.2905H269.436V6.99998ZM270.226 4.63848C270.226 4.17836 270.332 3.7656 270.544 3.40021C270.76 3.03482 271.051 2.75063 271.417 2.54763C271.787 2.34013 272.19 2.23637 272.628 2.23637C273.129 2.23637 273.573 2.36042 273.961 2.60853C274.353 2.85212 274.638 3.19947 274.814 3.65057H273.887C273.765 3.40246 273.596 3.21751 273.379 3.09572C273.163 2.97392 272.912 2.91302 272.628 2.91302C272.317 2.91302 272.039 2.98294 271.796 3.12278C271.552 3.26262 271.36 3.46336 271.221 3.725C271.085 3.98664 271.018 4.29113 271.018 4.63848C271.018 4.98582 271.085 5.29031 271.221 5.55195C271.36 5.81359 271.552 6.01658 271.796 6.16094C272.039 6.30078 272.317 6.3707 272.628 6.3707C272.912 6.3707 273.163 6.3098 273.379 6.188C273.596 6.06621 273.765 5.88125 273.887 5.63315H274.814C274.638 6.08425 274.353 6.4316 273.961 6.67519C273.573 6.91878 273.129 7.04058 272.628 7.04058C272.186 7.04058 271.782 6.93908 271.417 6.73609C271.051 6.52858 270.76 6.24213 270.544 5.87674C270.332 5.51135 270.226 5.0986 270.226 4.63848ZM276.522 2.91979V4.30015H278.146V4.92944H276.522V6.3707H278.349V6.99998H275.75V2.2905H278.349V2.91979H276.522Z" fill="#979797"/>
<path d="M114.358 242.461H113.472L110.808 238.43V242.461H109.922V237.055H110.808L113.472 241.079V237.055H114.358V242.461ZM117.416 242.531C117.012 242.531 116.647 242.44 116.321 242.259C115.994 242.073 115.738 241.814 115.552 241.482C115.365 241.146 115.272 240.758 115.272 240.317C115.272 239.882 115.368 239.497 115.559 239.16C115.751 238.823 116.013 238.564 116.344 238.383C116.675 238.202 117.046 238.111 117.455 238.111C117.864 238.111 118.234 238.202 118.566 238.383C118.897 238.564 119.158 238.823 119.35 239.16C119.542 239.497 119.637 239.882 119.637 240.317C119.637 240.752 119.539 241.138 119.342 241.475C119.145 241.811 118.876 242.073 118.534 242.259C118.198 242.44 117.825 242.531 117.416 242.531ZM117.416 241.762C117.644 241.762 117.856 241.708 118.053 241.599C118.255 241.49 118.418 241.327 118.542 241.11C118.666 240.892 118.729 240.628 118.729 240.317C118.729 240.007 118.669 239.745 118.55 239.533C118.431 239.315 118.273 239.152 118.076 239.043C117.879 238.935 117.667 238.88 117.439 238.88C117.211 238.88 116.999 238.935 116.802 239.043C116.611 239.152 116.458 239.315 116.344 239.533C116.23 239.745 116.173 240.007 116.173 240.317C116.173 240.778 116.29 241.136 116.523 241.389C116.761 241.638 117.059 241.762 117.416 241.762ZM122.711 238.111C123.048 238.111 123.348 238.181 123.612 238.321C123.881 238.461 124.091 238.668 124.241 238.942C124.391 239.217 124.467 239.548 124.467 239.937V242.461H123.589V240.069C123.589 239.686 123.493 239.393 123.301 239.191C123.11 238.984 122.848 238.88 122.517 238.88C122.185 238.88 121.921 238.984 121.725 239.191C121.533 239.393 121.437 239.686 121.437 240.069V242.461H120.552V238.181H121.437V238.671C121.582 238.495 121.766 238.357 121.989 238.259C122.217 238.161 122.457 238.111 122.711 238.111ZM128.921 239.276V240.022H125.728V239.276H128.921ZM129.922 240.302C129.922 239.872 130.01 239.491 130.186 239.16C130.368 238.829 130.611 238.572 130.917 238.391C131.227 238.205 131.572 238.111 131.95 238.111C132.229 238.111 132.504 238.173 132.773 238.298C133.048 238.417 133.265 238.577 133.426 238.779V236.713H134.319V242.461H133.426V241.816C133.281 242.024 133.079 242.195 132.82 242.329C132.566 242.464 132.273 242.531 131.942 242.531C131.569 242.531 131.227 242.438 130.917 242.251C130.611 242.06 130.368 241.796 130.186 241.459C130.01 241.117 129.922 240.732 129.922 240.302ZM133.426 240.317C133.426 240.022 133.363 239.766 133.239 239.548C133.12 239.331 132.962 239.165 132.765 239.051C132.569 238.937 132.356 238.88 132.128 238.88C131.901 238.88 131.688 238.937 131.491 239.051C131.295 239.16 131.134 239.323 131.01 239.541C130.891 239.753 130.831 240.007 130.831 240.302C130.831 240.597 130.891 240.856 131.01 241.079C131.134 241.301 131.295 241.472 131.491 241.591C131.693 241.705 131.906 241.762 132.128 241.762C132.356 241.762 132.569 241.705 132.765 241.591C132.962 241.477 133.12 241.312 133.239 241.094C133.363 240.871 133.426 240.613 133.426 240.317ZM137.377 242.531C136.973 242.531 136.608 242.44 136.282 242.259C135.956 242.073 135.699 241.814 135.513 241.482C135.327 241.146 135.233 240.758 135.233 240.317C135.233 239.882 135.329 239.497 135.521 239.16C135.712 238.823 135.974 238.564 136.305 238.383C136.637 238.202 137.007 238.111 137.416 238.111C137.825 238.111 138.195 238.202 138.527 238.383C138.858 238.564 139.12 238.823 139.311 239.16C139.503 239.497 139.599 239.882 139.599 240.317C139.599 240.752 139.5 241.138 139.304 241.475C139.107 241.811 138.838 242.073 138.496 242.259C138.159 242.44 137.786 242.531 137.377 242.531ZM137.377 241.762C137.605 241.762 137.817 241.708 138.014 241.599C138.216 241.49 138.379 241.327 138.504 241.11C138.628 240.892 138.69 240.628 138.69 240.317C138.69 240.007 138.63 239.745 138.511 239.533C138.392 239.315 138.234 239.152 138.038 239.043C137.841 238.935 137.628 238.88 137.401 238.88C137.173 238.88 136.96 238.935 136.764 239.043C136.572 239.152 136.419 239.315 136.305 239.533C136.191 239.745 136.134 240.007 136.134 240.317C136.134 240.778 136.251 241.136 136.484 241.389C136.722 241.638 137.02 241.762 137.377 241.762ZM145.694 238.111C146.031 238.111 146.331 238.181 146.595 238.321C146.864 238.461 147.074 238.668 147.224 238.942C147.38 239.217 147.457 239.548 147.457 239.937V242.461H146.58V240.069C146.58 239.686 146.484 239.393 146.292 239.191C146.101 238.984 145.839 238.88 145.508 238.88C145.176 238.88 144.912 238.984 144.715 239.191C144.524 239.393 144.428 239.686 144.428 240.069V242.461H143.55V240.069C143.55 239.686 143.454 239.393 143.263 239.191C143.071 238.984 142.81 238.88 142.478 238.88C142.147 238.88 141.883 238.984 141.686 239.191C141.494 239.393 141.399 239.686 141.399 240.069V242.461H140.513V238.181H141.399V238.671C141.544 238.495 141.727 238.357 141.95 238.259C142.173 238.161 142.411 238.111 142.665 238.111C143.006 238.111 143.312 238.184 143.581 238.329C143.851 238.474 144.058 238.684 144.203 238.958C144.332 238.699 144.534 238.495 144.809 238.344C145.083 238.189 145.378 238.111 145.694 238.111ZM149.073 237.614C148.913 237.614 148.778 237.56 148.67 237.451C148.561 237.342 148.506 237.208 148.506 237.047C148.506 236.887 148.561 236.752 148.67 236.643C148.778 236.534 148.913 236.48 149.073 236.48C149.229 236.48 149.361 236.534 149.47 236.643C149.578 236.752 149.633 236.887 149.633 237.047C149.633 237.208 149.578 237.342 149.47 237.451C149.361 237.56 149.229 237.614 149.073 237.614ZM149.508 238.181V242.461H148.623V238.181H149.508ZM152.869 238.111C153.206 238.111 153.506 238.181 153.77 238.321C154.04 238.461 154.249 238.668 154.4 238.942C154.55 239.217 154.625 239.548 154.625 239.937V242.461H153.747V240.069C153.747 239.686 153.651 239.393 153.46 239.191C153.268 238.984 153.007 238.88 152.675 238.88C152.344 238.88 152.08 238.984 151.883 239.191C151.691 239.393 151.595 239.686 151.595 240.069V242.461H150.71V238.181H151.595V238.671C151.74 238.495 151.924 238.357 152.147 238.259C152.375 238.161 152.616 238.111 152.869 238.111ZM155.498 240.302C155.498 239.872 155.586 239.491 155.762 239.16C155.943 238.829 156.187 238.572 156.492 238.391C156.803 238.205 157.145 238.111 157.518 238.111C157.854 238.111 158.147 238.179 158.395 238.313C158.649 238.443 158.851 238.606 159.001 238.803V238.181H159.894V242.461H159.001V241.824C158.851 242.026 158.646 242.195 158.388 242.329C158.129 242.464 157.833 242.531 157.502 242.531C157.134 242.531 156.798 242.438 156.492 242.251C156.187 242.06 155.943 241.796 155.762 241.459C155.586 241.117 155.498 240.732 155.498 240.302ZM159.001 240.317C159.001 240.022 158.939 239.766 158.815 239.548C158.696 239.331 158.538 239.165 158.341 239.051C158.144 238.937 157.932 238.88 157.704 238.88C157.476 238.88 157.264 238.937 157.067 239.051C156.87 239.16 156.71 239.323 156.585 239.541C156.466 239.753 156.407 240.007 156.407 240.302C156.407 240.597 156.466 240.856 156.585 241.079C156.71 241.301 156.87 241.472 157.067 241.591C157.269 241.705 157.481 241.762 157.704 241.762C157.932 241.762 158.144 241.705 158.341 241.591C158.538 241.477 158.696 241.312 158.815 241.094C158.939 240.871 159.001 240.613 159.001 240.317ZM163.256 238.111C163.592 238.111 163.893 238.181 164.157 238.321C164.426 238.461 164.636 238.668 164.786 238.942C164.936 239.217 165.011 239.548 165.011 239.937V242.461H164.134V240.069C164.134 239.686 164.038 239.393 163.846 239.191C163.655 238.984 163.393 238.88 163.062 238.88C162.73 238.88 162.466 238.984 162.269 239.191C162.078 239.393 161.982 239.686 161.982 240.069V242.461H161.096V238.181H161.982V238.671C162.127 238.495 162.311 238.357 162.533 238.259C162.761 238.161 163.002 238.111 163.256 238.111ZM167.213 238.904V241.273C167.213 241.433 167.249 241.55 167.321 241.622C167.399 241.69 167.529 241.723 167.71 241.723H168.254V242.461H167.555C167.156 242.461 166.85 242.368 166.638 242.182C166.426 241.995 166.319 241.692 166.319 241.273V238.904H165.815V238.181H166.319V237.117H167.213V238.181H168.254V238.904H167.213ZM175.088 240.216C175.088 240.377 175.078 240.522 175.057 240.651H171.787C171.813 240.993 171.939 241.268 172.167 241.475C172.395 241.682 172.675 241.785 173.006 241.785C173.483 241.785 173.819 241.586 174.016 241.187H174.971C174.842 241.581 174.606 241.905 174.265 242.158C173.928 242.407 173.508 242.531 173.006 242.531C172.597 242.531 172.229 242.44 171.903 242.259C171.582 242.073 171.328 241.814 171.142 241.482C170.961 241.146 170.87 240.758 170.87 240.317C170.87 239.877 170.958 239.491 171.134 239.16C171.315 238.823 171.567 238.564 171.888 238.383C172.214 238.202 172.587 238.111 173.006 238.111C173.41 238.111 173.77 238.199 174.086 238.375C174.402 238.551 174.648 238.8 174.824 239.121C175 239.437 175.088 239.802 175.088 240.216ZM174.164 239.937C174.158 239.61 174.042 239.349 173.814 239.152C173.586 238.955 173.304 238.857 172.967 238.857C172.662 238.857 172.4 238.955 172.183 239.152C171.965 239.344 171.836 239.605 171.794 239.937H174.164ZM179.851 238.181L177.225 244.473H176.309L177.179 242.391L175.493 238.181H176.48L177.684 241.444L178.934 238.181H179.851ZM184.481 240.216C184.481 240.377 184.47 240.522 184.45 240.651H181.179C181.205 240.993 181.332 241.268 181.56 241.475C181.788 241.682 182.068 241.785 182.399 241.785C182.875 241.785 183.212 241.586 183.409 241.187H184.364C184.235 241.581 183.999 241.905 183.657 242.158C183.321 242.407 182.901 242.531 182.399 242.531C181.99 242.531 181.622 242.44 181.296 242.259C180.975 242.073 180.721 241.814 180.535 241.482C180.353 241.146 180.263 240.758 180.263 240.317C180.263 239.877 180.351 239.491 180.527 239.16C180.708 238.823 180.959 238.564 181.28 238.383C181.607 238.202 181.979 238.111 182.399 238.111C182.803 238.111 183.163 238.199 183.479 238.375C183.795 238.551 184.041 238.8 184.217 239.121C184.393 239.437 184.481 239.802 184.481 240.216ZM183.556 239.937C183.551 239.61 183.435 239.349 183.207 239.152C182.979 238.955 182.697 238.857 182.36 238.857C182.055 238.857 181.793 238.955 181.576 239.152C181.358 239.344 181.229 239.605 181.187 239.937H183.556Z" fill="black"/>
<path d="M138.365 252.358V253.104H135.173V252.358H138.365ZM139.429 250.688V249.88H141.045V255.543H140.152V250.688H139.429ZM142.774 255.597C142.614 255.597 142.479 255.543 142.37 255.434C142.261 255.326 142.207 255.191 142.207 255.03C142.207 254.87 142.261 254.735 142.37 254.627C142.479 254.518 142.614 254.463 142.774 254.463C142.929 254.463 143.061 254.518 143.17 254.627C143.279 254.735 143.333 254.87 143.333 255.03C143.333 255.191 143.279 255.326 143.17 255.434C143.061 255.543 142.929 255.597 142.774 255.597ZM147.864 250.642H145.261V252.187C145.37 252.042 145.531 251.921 145.743 251.822C145.96 251.724 146.191 251.675 146.434 251.675C146.869 251.675 147.221 251.768 147.491 251.954C147.765 252.141 147.959 252.376 148.073 252.661C148.192 252.946 148.252 253.246 148.252 253.562C148.252 253.946 148.177 254.287 148.027 254.588C147.882 254.883 147.662 255.116 147.366 255.287C147.076 255.458 146.719 255.543 146.294 255.543C145.73 255.543 145.277 255.403 144.935 255.124C144.593 254.844 144.389 254.474 144.321 254.013H145.184C145.241 254.256 145.367 254.45 145.564 254.595C145.761 254.735 146.007 254.805 146.302 254.805C146.67 254.805 146.944 254.694 147.126 254.471C147.312 254.248 147.405 253.953 147.405 253.586C147.405 253.213 147.312 252.928 147.126 252.731C146.939 252.529 146.665 252.428 146.302 252.428C146.048 252.428 145.834 252.493 145.657 252.622C145.487 252.747 145.362 252.918 145.285 253.135H144.446V249.865H147.864V250.642ZM153.149 250.145C153.724 250.145 154.226 250.256 154.656 250.479C155.091 250.696 155.425 251.012 155.658 251.426C155.896 251.835 156.015 252.314 156.015 252.863C156.015 253.412 155.896 253.889 155.658 254.292C155.425 254.696 155.091 255.007 154.656 255.225C154.226 255.437 153.724 255.543 153.149 255.543H151.386V250.145H153.149ZM153.149 254.821C153.781 254.821 154.265 254.65 154.601 254.308C154.938 253.966 155.106 253.485 155.106 252.863C155.106 252.237 154.938 251.747 154.601 251.395C154.265 251.043 153.781 250.867 153.149 250.867H152.271V254.821H153.149Z" fill="black"/>
<path d="M276.718 237.063C277.293 237.063 277.796 237.174 278.225 237.397C278.66 237.614 278.994 237.93 279.227 238.344C279.466 238.753 279.585 239.232 279.585 239.781C279.585 240.33 279.466 240.807 279.227 241.211C278.994 241.615 278.66 241.925 278.225 242.143C277.796 242.355 277.293 242.461 276.718 242.461H274.955V237.063H276.718ZM276.718 241.739C277.35 241.739 277.834 241.568 278.171 241.226C278.508 240.884 278.676 240.403 278.676 239.781C278.676 239.155 278.508 238.665 278.171 238.313C277.834 237.961 277.35 237.785 276.718 237.785H275.841V241.739H276.718ZM282.358 242.531C281.954 242.531 281.589 242.44 281.262 242.259C280.936 242.073 280.68 241.814 280.493 241.482C280.307 241.146 280.214 240.758 280.214 240.317C280.214 239.882 280.31 239.497 280.501 239.16C280.693 238.823 280.954 238.564 281.286 238.383C281.617 238.202 281.987 238.111 282.396 238.111C282.806 238.111 283.176 238.202 283.507 238.383C283.839 238.564 284.1 238.823 284.292 239.16C284.483 239.497 284.579 239.882 284.579 240.317C284.579 240.752 284.481 241.138 284.284 241.475C284.087 241.811 283.818 242.073 283.476 242.259C283.14 242.44 282.767 242.531 282.358 242.531ZM282.358 241.762C282.585 241.762 282.798 241.708 282.995 241.599C283.196 241.49 283.36 241.327 283.484 241.11C283.608 240.892 283.67 240.628 283.67 240.317C283.67 240.007 283.611 239.745 283.492 239.533C283.373 239.315 283.215 239.152 283.018 239.043C282.821 238.935 282.609 238.88 282.381 238.88C282.153 238.88 281.941 238.935 281.744 239.043C281.552 239.152 281.4 239.315 281.286 239.533C281.172 239.745 281.115 240.007 281.115 240.317C281.115 240.778 281.231 241.136 281.464 241.389C281.703 241.638 282 241.762 282.358 241.762ZM290.674 238.111C291.011 238.111 291.311 238.181 291.575 238.321C291.845 238.461 292.054 238.668 292.205 238.942C292.36 239.217 292.438 239.548 292.438 239.937V242.461H291.56V240.069C291.56 239.686 291.464 239.393 291.272 239.191C291.081 238.984 290.819 238.88 290.488 238.88C290.157 238.88 289.892 238.984 289.696 239.191C289.504 239.393 289.408 239.686 289.408 240.069V242.461H288.531V240.069C288.531 239.686 288.435 239.393 288.243 239.191C288.051 238.984 287.79 238.88 287.459 238.88C287.127 238.88 286.863 238.984 286.666 239.191C286.475 239.393 286.379 239.686 286.379 240.069V242.461H285.493V238.181H286.379V238.671C286.524 238.495 286.708 238.357 286.93 238.259C287.153 238.161 287.391 238.111 287.645 238.111C287.987 238.111 288.292 238.184 288.562 238.329C288.831 238.474 289.038 238.684 289.183 238.958C289.312 238.699 289.514 238.495 289.789 238.344C290.063 238.189 290.358 238.111 290.674 238.111ZM294.054 237.614C293.893 237.614 293.759 237.56 293.65 237.451C293.541 237.342 293.487 237.208 293.487 237.047C293.487 236.887 293.541 236.752 293.65 236.643C293.759 236.534 293.893 236.48 294.054 236.48C294.209 236.48 294.341 236.534 294.45 236.643C294.559 236.752 294.613 236.887 294.613 237.047C294.613 237.208 294.559 237.342 294.45 237.451C294.341 237.56 294.209 237.614 294.054 237.614ZM294.489 238.181V242.461H293.603V238.181H294.489ZM297.85 238.111C298.186 238.111 298.487 238.181 298.751 238.321C299.02 238.461 299.23 238.668 299.38 238.942C299.53 239.217 299.605 239.548 299.605 239.937V242.461H298.727V240.069C298.727 239.686 298.632 239.393 298.44 239.191C298.248 238.984 297.987 238.88 297.655 238.88C297.324 238.88 297.06 238.984 296.863 239.191C296.672 239.393 296.576 239.686 296.576 240.069V242.461H295.69V238.181H296.576V238.671C296.721 238.495 296.905 238.357 297.127 238.259C297.355 238.161 297.596 238.111 297.85 238.111ZM300.478 240.302C300.478 239.872 300.566 239.491 300.742 239.16C300.924 238.829 301.167 238.572 301.473 238.391C301.783 238.205 302.125 238.111 302.498 238.111C302.834 238.111 303.127 238.179 303.376 238.313C303.629 238.443 303.831 238.606 303.982 238.803V238.181H304.875V242.461H303.982V241.824C303.831 242.026 303.627 242.195 303.368 242.329C303.109 242.464 302.814 242.531 302.482 242.531C302.115 242.531 301.778 242.438 301.473 242.251C301.167 242.06 300.924 241.796 300.742 241.459C300.566 241.117 300.478 240.732 300.478 240.302ZM303.982 240.317C303.982 240.022 303.919 239.766 303.795 239.548C303.676 239.331 303.518 239.165 303.321 239.051C303.124 238.937 302.912 238.88 302.684 238.88C302.456 238.88 302.244 238.937 302.047 239.051C301.851 239.16 301.69 239.323 301.566 239.541C301.447 239.753 301.387 240.007 301.387 240.302C301.387 240.597 301.447 240.856 301.566 241.079C301.69 241.301 301.851 241.472 302.047 241.591C302.249 241.705 302.462 241.762 302.684 241.762C302.912 241.762 303.124 241.705 303.321 241.591C303.518 241.477 303.676 241.312 303.795 241.094C303.919 240.871 303.982 240.613 303.982 240.317ZM308.236 238.111C308.573 238.111 308.873 238.181 309.137 238.321C309.406 238.461 309.616 238.668 309.766 238.942C309.917 239.217 309.992 239.548 309.992 239.937V242.461H309.114V240.069C309.114 239.686 309.018 239.393 308.826 239.191C308.635 238.984 308.373 238.88 308.042 238.88C307.711 238.88 307.446 238.984 307.25 239.191C307.058 239.393 306.962 239.686 306.962 240.069V242.461H306.077V238.181H306.962V238.671C307.107 238.495 307.291 238.357 307.514 238.259C307.742 238.161 307.982 238.111 308.236 238.111ZM312.193 238.904V241.273C312.193 241.433 312.229 241.55 312.302 241.622C312.38 241.69 312.509 241.723 312.69 241.723H313.234V242.461H312.535C312.136 242.461 311.831 242.368 311.618 242.182C311.406 241.995 311.3 241.692 311.3 241.273V238.904H310.795V238.181H311.3V237.117H312.193V238.181H313.234V238.904H312.193ZM320.068 240.216C320.068 240.377 320.058 240.522 320.037 240.651H316.767C316.793 240.993 316.92 241.268 317.148 241.475C317.375 241.682 317.655 241.785 317.986 241.785C318.463 241.785 318.799 241.586 318.996 241.187H319.952C319.822 241.581 319.587 241.905 319.245 242.158C318.908 242.407 318.489 242.531 317.986 242.531C317.577 242.531 317.21 242.44 316.883 242.259C316.562 242.073 316.309 241.814 316.122 241.482C315.941 241.146 315.85 240.758 315.85 240.317C315.85 239.877 315.938 239.491 316.114 239.16C316.296 238.823 316.547 238.564 316.868 238.383C317.194 238.202 317.567 238.111 317.986 238.111C318.39 238.111 318.75 238.199 319.066 238.375C319.382 238.551 319.628 238.8 319.804 239.121C319.98 239.437 320.068 239.802 320.068 240.216ZM319.144 239.937C319.139 239.61 319.022 239.349 318.794 239.152C318.566 238.955 318.284 238.857 317.948 238.857C317.642 238.857 317.381 238.955 317.163 239.152C316.946 239.344 316.816 239.605 316.775 239.937H319.144ZM324.831 238.181L322.206 244.473H321.289L322.159 242.391L320.474 238.181H321.46L322.664 241.444L323.915 238.181H324.831ZM329.461 240.216C329.461 240.377 329.451 240.522 329.43 240.651H326.16C326.186 240.993 326.313 241.268 326.54 241.475C326.768 241.682 327.048 241.785 327.379 241.785C327.856 241.785 328.192 241.586 328.389 241.187H329.344C329.215 241.581 328.979 241.905 328.638 242.158C328.301 242.407 327.882 242.531 327.379 242.531C326.97 242.531 326.603 242.44 326.276 242.259C325.955 242.073 325.701 241.814 325.515 241.482C325.334 241.146 325.243 240.758 325.243 240.317C325.243 239.877 325.331 239.491 325.507 239.16C325.689 238.823 325.94 238.564 326.261 238.383C326.587 238.202 326.96 238.111 327.379 238.111C327.783 238.111 328.143 238.199 328.459 238.375C328.775 238.551 329.021 238.8 329.197 239.121C329.373 239.437 329.461 239.802 329.461 240.216ZM328.537 239.937C328.531 239.61 328.415 239.349 328.187 239.152C327.959 238.955 327.677 238.857 327.34 238.857C327.035 238.857 326.773 238.955 326.556 239.152C326.338 239.344 326.209 239.605 326.168 239.937H328.537Z" fill="black"/>
<path d="M61.6724 162.012C61.3053 162.012 60.975 161.949 60.6814 161.824C60.3878 161.693 60.1571 161.509 59.9893 161.273C59.8215 161.037 59.7376 160.762 59.7376 160.447H60.6971C60.7181 160.683 60.8099 160.877 60.9724 161.029C61.1402 161.181 61.3735 161.257 61.6724 161.257C61.9817 161.257 62.2229 161.184 62.3959 161.037C62.569 160.885 62.6555 160.691 62.6555 160.455C62.6555 160.272 62.6004 160.122 62.4903 160.007C62.3854 159.892 62.2517 159.802 62.0892 159.739C61.9319 159.677 61.7117 159.608 61.4286 159.535C61.072 159.441 60.781 159.346 60.5556 159.252C60.3354 159.152 60.1466 159 59.9893 158.796C59.832 158.591 59.7534 158.319 59.7534 157.978C59.7534 157.663 59.832 157.388 59.9893 157.152C60.1466 156.916 60.3668 156.735 60.65 156.609C60.9331 156.483 61.2608 156.421 61.633 156.421C62.1626 156.421 62.5952 156.554 62.9307 156.822C63.2715 157.084 63.4603 157.446 63.497 157.907H62.506C62.4903 157.708 62.3959 157.537 62.2229 157.396C62.0499 157.254 61.8218 157.183 61.5387 157.183C61.2818 157.183 61.072 157.249 60.9095 157.38C60.7469 157.511 60.6657 157.7 60.6657 157.946C60.6657 158.114 60.7155 158.253 60.8151 158.363C60.92 158.468 61.0511 158.552 61.2084 158.615C61.3656 158.678 61.5806 158.746 61.8533 158.819C62.215 158.919 62.5087 159.019 62.7341 159.118C62.9648 159.218 63.1588 159.372 63.3161 159.582C63.4787 159.787 63.5599 160.062 63.5599 160.408C63.5599 160.686 63.4839 160.948 63.3318 161.194C63.185 161.441 62.9674 161.64 62.6791 161.792C62.3959 161.939 62.0604 162.012 61.6724 162.012ZM66.8986 157.553C67.229 157.553 67.5226 157.624 67.7795 157.765C68.0417 157.907 68.2461 158.117 68.393 158.395C68.545 158.672 68.621 159.008 68.621 159.401V161.957H67.7323V159.535C67.7323 159.147 67.6353 158.851 67.4413 158.646C67.2473 158.437 66.9825 158.332 66.647 158.332C66.3114 158.332 66.044 158.437 65.8448 158.646C65.6508 158.851 65.5538 159.147 65.5538 159.535V161.957H64.6572V156.137H65.5538V158.127C65.7058 157.944 65.8972 157.802 66.1279 157.702C66.3638 157.603 66.6208 157.553 66.8986 157.553ZM69.5051 159.771C69.5051 159.336 69.5943 158.95 69.7725 158.615C69.9561 158.279 70.2025 158.02 70.5118 157.836C70.8264 157.647 71.1725 157.553 71.55 157.553C71.8908 157.553 72.187 157.621 72.4387 157.758C72.6956 157.889 72.9001 158.054 73.0522 158.253V157.624H73.9566V161.957H73.0522V161.312C72.9001 161.517 72.693 161.687 72.4308 161.824C72.1687 161.96 71.8698 162.028 71.5343 162.028C71.162 162.028 70.8212 161.934 70.5118 161.745C70.2025 161.551 69.9561 161.284 69.7725 160.943C69.5943 160.597 69.5051 160.206 69.5051 159.771ZM73.0522 159.787C73.0522 159.488 72.9892 159.228 72.8634 159.008C72.7428 158.788 72.5829 158.62 72.3837 158.505C72.1844 158.389 71.9694 158.332 71.7387 158.332C71.508 158.332 71.2931 158.389 71.0938 158.505C70.8946 158.615 70.732 158.78 70.6062 159C70.4856 159.215 70.4253 159.472 70.4253 159.771C70.4253 160.07 70.4856 160.332 70.6062 160.557C70.732 160.783 70.8946 160.956 71.0938 161.076C71.2983 161.192 71.5133 161.25 71.7387 161.25C71.9694 161.25 72.1844 161.192 72.3837 161.076C72.5829 160.961 72.7428 160.793 72.8634 160.573C72.9892 160.348 73.0522 160.086 73.0522 159.787ZM76.0701 158.253C76.2012 158.033 76.3742 157.862 76.5892 157.742C76.8094 157.616 77.069 157.553 77.3678 157.553V158.481H77.1398C76.7885 158.481 76.5211 158.57 76.3375 158.749C76.1593 158.927 76.0701 159.236 76.0701 159.677V161.957H75.1736V157.624H76.0701V158.253ZM79.1279 158.261C79.2799 158.062 79.487 157.894 79.7492 157.758C80.0114 157.621 80.3076 157.553 80.6379 157.553C81.0154 157.553 81.3589 157.647 81.6682 157.836C81.9828 158.02 82.2292 158.279 82.4075 158.615C82.5858 158.95 82.6749 159.336 82.6749 159.771C82.6749 160.206 82.5858 160.597 82.4075 160.943C82.2292 161.284 81.9828 161.551 81.6682 161.745C81.3589 161.934 81.0154 162.028 80.6379 162.028C80.3076 162.028 80.014 161.963 79.7571 161.831C79.5002 161.695 79.2904 161.527 79.1279 161.328V164.018H78.2313V157.624H79.1279V158.261ZM81.7626 159.771C81.7626 159.472 81.6997 159.215 81.5738 159C81.4532 158.78 81.2907 158.615 81.0862 158.505C80.887 158.389 80.672 158.332 80.4413 158.332C80.2158 158.332 80.0009 158.389 79.7964 158.505C79.5972 158.62 79.4346 158.788 79.3088 159.008C79.1882 159.228 79.1279 159.488 79.1279 159.787C79.1279 160.086 79.1882 160.348 79.3088 160.573C79.4346 160.793 79.5972 160.961 79.7964 161.076C80.0009 161.192 80.2158 161.25 80.4413 161.25C80.672 161.25 80.887 161.192 81.0862 161.076C81.2907 160.956 81.4532 160.783 81.5738 160.557C81.6997 160.332 81.7626 160.07 81.7626 159.771ZM87.8696 157.553C88.2104 157.553 88.5145 157.624 88.7819 157.765C89.0545 157.907 89.2669 158.117 89.419 158.395C89.571 158.672 89.647 159.008 89.647 159.401V161.957H88.7583V159.535C88.7583 159.147 88.6613 158.851 88.4673 158.646C88.2733 158.437 88.0085 158.332 87.673 158.332C87.3374 158.332 87.07 158.437 86.8708 158.646C86.6768 158.851 86.5798 159.147 86.5798 159.535V161.957H85.6832V157.624H86.5798V158.119C86.7266 157.941 86.9127 157.802 87.1382 157.702C87.3689 157.603 87.6127 157.553 87.8696 157.553ZM94.8017 159.684C94.8017 159.847 94.7912 159.994 94.7703 160.125H91.4592C91.4854 160.471 91.6139 160.749 91.8446 160.959C92.0753 161.168 92.3584 161.273 92.694 161.273C93.1763 161.273 93.5171 161.071 93.7164 160.668H94.6837C94.5527 161.066 94.3141 161.394 93.968 161.651C93.6272 161.902 93.2025 162.028 92.694 162.028C92.2797 162.028 91.9075 161.936 91.5772 161.753C91.2521 161.564 90.9952 161.302 90.8064 160.966C90.6229 160.626 90.5311 160.232 90.5311 159.787C90.5311 159.341 90.6203 158.95 90.7985 158.615C90.9821 158.274 91.2363 158.012 91.5614 157.828C91.8917 157.645 92.2693 157.553 92.694 157.553C93.1029 157.553 93.4673 157.642 93.7872 157.82C94.107 157.999 94.356 158.25 94.5343 158.575C94.7126 158.895 94.8017 159.265 94.8017 159.684ZM93.8658 159.401C93.8606 159.071 93.7426 158.806 93.5119 158.607C93.2812 158.408 92.9954 158.308 92.6546 158.308C92.3453 158.308 92.0805 158.408 91.8603 158.607C91.6401 158.801 91.509 159.066 91.467 159.401H93.8658ZM95.4245 159.771C95.4245 159.336 95.5136 158.95 95.6919 158.615C95.8754 158.279 96.1219 158.02 96.4312 157.836C96.7458 157.647 97.0918 157.553 97.4694 157.553C97.8102 157.553 98.1064 157.621 98.3581 157.758C98.615 157.889 98.8195 158.054 98.9715 158.253V157.624H99.876V161.957H98.9715V161.312C98.8195 161.517 98.6124 161.687 98.3502 161.824C98.088 161.96 97.7892 162.028 97.4536 162.028C97.0814 162.028 96.7405 161.934 96.4312 161.745C96.1219 161.551 95.8754 161.284 95.6919 160.943C95.5136 160.597 95.4245 160.206 95.4245 159.771ZM98.9715 159.787C98.9715 159.488 98.9086 159.228 98.7828 159.008C98.6622 158.788 98.5023 158.62 98.303 158.505C98.1038 158.389 97.8888 158.332 97.6581 158.332C97.4274 158.332 97.2124 158.389 97.0132 158.505C96.814 158.615 96.6514 158.78 96.5256 159C96.405 159.215 96.3447 159.472 96.3447 159.771C96.3447 160.07 96.405 160.332 96.5256 160.557C96.6514 160.783 96.814 160.956 97.0132 161.076C97.2177 161.192 97.4326 161.25 97.6581 161.25C97.8888 161.25 98.1038 161.192 98.303 161.076C98.5023 160.961 98.6622 160.793 98.7828 160.573C98.9086 160.348 98.9715 160.086 98.9715 159.787ZM101.99 158.253C102.121 158.033 102.294 157.862 102.509 157.742C102.729 157.616 102.988 157.553 103.287 157.553V158.481H103.059C102.708 158.481 102.44 158.57 102.257 158.749C102.079 158.927 101.99 159.236 101.99 159.677V161.957H101.093V157.624H101.99V158.253ZM82.587 173.155L83.8139 169.624H84.7655L83.1139 173.957H82.0443L80.4006 169.624H81.3601L82.587 173.155ZM85.9387 169.05C85.7762 169.05 85.6399 168.995 85.5298 168.885C85.4196 168.774 85.3646 168.638 85.3646 168.476C85.3646 168.313 85.4196 168.177 85.5298 168.067C85.6399 167.957 85.7762 167.901 85.9387 167.901C86.096 167.901 86.2297 167.957 86.3398 168.067C86.4499 168.177 86.505 168.313 86.505 168.476C86.505 168.638 86.4499 168.774 86.3398 168.885C86.2297 168.995 86.096 169.05 85.9387 169.05ZM86.3791 169.624V173.957H85.4826V169.624H86.3791ZM89.1686 174.028C88.8278 174.028 88.521 173.968 88.2484 173.847C87.981 173.721 87.7686 173.554 87.6113 173.344C87.454 173.129 87.3702 172.89 87.3597 172.628H88.2877C88.3034 172.812 88.39 172.966 88.5472 173.092C88.7098 173.213 88.9116 173.273 89.1528 173.273C89.4045 173.273 89.5985 173.226 89.7348 173.132C89.8764 173.032 89.9472 172.906 89.9472 172.754C89.9472 172.591 89.8685 172.471 89.7112 172.392C89.5592 172.314 89.3154 172.227 88.9798 172.133C88.6547 172.044 88.39 171.957 88.1855 171.873C87.981 171.789 87.8027 171.661 87.6507 171.488C87.5039 171.315 87.4304 171.087 87.4304 170.804C87.4304 170.573 87.4986 170.363 87.6349 170.174C87.7713 169.98 87.9653 169.828 88.2169 169.718C88.4738 169.608 88.7675 169.553 89.0978 169.553C89.5906 169.553 89.9865 169.679 90.2854 169.931C90.5895 170.177 90.752 170.515 90.773 170.945H89.8764C89.8607 170.751 89.782 170.596 89.6405 170.481C89.4989 170.366 89.3075 170.308 89.0663 170.308C88.8304 170.308 88.6495 170.353 88.5237 170.442C88.3978 170.531 88.3349 170.649 88.3349 170.796C88.3349 170.911 88.3768 171.008 88.4607 171.087C88.5446 171.165 88.6469 171.228 88.7675 171.275C88.8881 171.317 89.0663 171.372 89.3023 171.441C89.6169 171.524 89.8738 171.611 90.073 171.7C90.2775 171.784 90.4531 171.91 90.6 172.078C90.7468 172.245 90.8228 172.468 90.828 172.746C90.828 172.993 90.7599 173.213 90.6235 173.407C90.4872 173.601 90.2932 173.753 90.0416 173.863C89.7951 173.973 89.5041 174.028 89.1686 174.028ZM92.2923 169.05C92.1298 169.05 91.9934 168.995 91.8833 168.885C91.7732 168.774 91.7182 168.638 91.7182 168.476C91.7182 168.313 91.7732 168.177 91.8833 168.067C91.9934 167.957 92.1298 167.901 92.2923 167.901C92.4496 167.901 92.5833 167.957 92.6934 168.067C92.8035 168.177 92.8586 168.313 92.8586 168.476C92.8586 168.638 92.8035 168.774 92.6934 168.885C92.5833 168.995 92.4496 169.05 92.2923 169.05ZM92.7327 169.624V173.957H91.8361V169.624H92.7327ZM95.8289 174.028C95.4199 174.028 95.0503 173.936 94.7199 173.753C94.3896 173.564 94.1301 173.302 93.9413 172.966C93.7526 172.626 93.6582 172.232 93.6582 171.787C93.6582 171.346 93.7552 170.956 93.9492 170.615C94.1432 170.274 94.408 170.012 94.7435 169.828C95.0791 169.645 95.454 169.553 95.8682 169.553C96.2824 169.553 96.6573 169.645 96.9929 169.828C97.3284 170.012 97.5932 170.274 97.7872 170.615C97.9812 170.956 98.0782 171.346 98.0782 171.787C98.0782 172.227 97.9786 172.618 97.7793 172.959C97.5801 173.299 97.3074 173.564 96.9614 173.753C96.6206 173.936 96.2431 174.028 95.8289 174.028ZM95.8289 173.25C96.0596 173.25 96.2745 173.194 96.4738 173.084C96.6783 172.974 96.8434 172.809 96.9693 172.589C97.0951 172.369 97.158 172.101 97.158 171.787C97.158 171.472 97.0977 171.207 96.9771 170.992C96.8565 170.772 96.6966 170.607 96.4974 170.497C96.2981 170.387 96.0832 170.332 95.8525 170.332C95.6218 170.332 95.4068 170.387 95.2075 170.497C95.0136 170.607 94.8589 170.772 94.7435 170.992C94.6282 171.207 94.5705 171.472 94.5705 171.787C94.5705 172.253 94.6885 172.615 94.9244 172.872C95.1656 173.124 95.4671 173.25 95.8289 173.25ZM101.19 169.553C101.531 169.553 101.835 169.624 102.103 169.765C102.375 169.907 102.588 170.117 102.74 170.395C102.892 170.672 102.968 171.008 102.968 171.401V173.957H102.079V171.535C102.079 171.147 101.982 170.851 101.788 170.646C101.594 170.437 101.329 170.332 100.994 170.332C100.658 170.332 100.391 170.437 100.191 170.646C99.9974 170.851 99.9004 171.147 99.9004 171.535V173.957H99.0038V169.624H99.9004V170.119C100.047 169.941 100.233 169.802 100.459 169.702C100.69 169.603 100.933 169.553 101.19 169.553Z" fill="#C16066"/>
<path d="M56.119 79.715C56.119 79.1802 56.2422 78.7004 56.4886 78.2757C56.7403 77.851 57.0785 77.5207 57.5032 77.2847C57.9331 77.0436 58.4024 76.923 58.911 76.923C59.493 76.923 60.0094 77.0672 60.4604 77.3555C60.9165 77.6387 61.2468 78.0424 61.4513 78.5667H60.3738C60.2323 78.2783 60.0357 78.0634 59.784 77.9218C59.5323 77.7802 59.2413 77.7094 58.911 77.7094C58.5492 77.7094 58.2268 77.7907 57.9436 77.9533C57.6605 78.1158 57.4377 78.3491 57.2751 78.6532C57.1178 78.9573 57.0392 79.3112 57.0392 79.715C57.0392 80.1187 57.1178 80.4726 57.2751 80.7767C57.4377 81.0808 57.6605 81.3168 57.9436 81.4845C58.2268 81.6471 58.5492 81.7283 58.911 81.7283C59.2413 81.7283 59.5323 81.6576 59.784 81.516C60.0357 81.3744 60.2323 81.1595 60.3738 80.8711H61.4513C61.2468 81.3954 60.9165 81.7991 60.4604 82.0823C60.0094 82.3654 59.493 82.507 58.911 82.507C58.3972 82.507 57.9279 82.389 57.5032 82.153C57.0785 81.9119 56.7403 81.5789 56.4886 81.1542C56.2422 80.7295 56.119 80.2498 56.119 79.715ZM64.4198 82.5306C64.0108 82.5306 63.6412 82.4388 63.3109 82.2553C62.9805 82.0665 62.721 81.8044 62.5322 81.4688C62.3435 81.128 62.2491 80.7348 62.2491 80.2891C62.2491 79.8487 62.3461 79.458 62.5401 79.1172C62.7341 78.7764 62.9989 78.5143 63.3344 78.3308C63.67 78.1472 64.0449 78.0555 64.4591 78.0555C64.8733 78.0555 65.2482 78.1472 65.5838 78.3308C65.9193 78.5143 66.1841 78.7764 66.3781 79.1172C66.5721 79.458 66.6691 79.8487 66.6691 80.2891C66.6691 80.7295 66.5695 81.1201 66.3703 81.4609C66.171 81.8018 65.8984 82.0665 65.5523 82.2553C65.2115 82.4388 64.834 82.5306 64.4198 82.5306ZM64.4198 81.7519C64.6505 81.7519 64.8655 81.6969 65.0647 81.5868C65.2692 81.4767 65.4343 81.3115 65.5602 81.0913C65.686 80.8711 65.7489 80.6037 65.7489 80.2891C65.7489 79.9745 65.6886 79.7097 65.568 79.4947C65.4474 79.2745 65.2875 79.1094 65.0883 78.9993C64.889 78.8892 64.6741 78.8341 64.4434 78.8341C64.2127 78.8341 63.9977 78.8892 63.7985 78.9993C63.6045 79.1094 63.4498 79.2745 63.3344 79.4947C63.2191 79.7097 63.1614 79.9745 63.1614 80.2891C63.1614 80.7557 63.2794 81.1175 63.5153 81.3744C63.7565 81.6261 64.058 81.7519 64.4198 81.7519ZM72.8406 78.0555C73.1814 78.0555 73.4855 78.1263 73.7529 78.2678C74.0255 78.4094 74.2379 78.6191 74.3899 78.897C74.5472 79.1749 74.6259 79.5105 74.6259 79.9037V82.4598H73.7372V80.0374C73.7372 79.6494 73.6402 79.3532 73.4462 79.1487C73.2522 78.939 72.9874 78.8341 72.6518 78.8341C72.3163 78.8341 72.0488 78.939 71.8496 79.1487C71.6556 79.3532 71.5586 79.6494 71.5586 80.0374V82.4598H70.6699V80.0374C70.6699 79.6494 70.5729 79.3532 70.3789 79.1487C70.1849 78.939 69.9201 78.8341 69.5845 78.8341C69.249 78.8341 68.9816 78.939 68.7823 79.1487C68.5883 79.3532 68.4913 79.6494 68.4913 80.0374V82.4598H67.5948V78.1263H68.4913V78.6218C68.6382 78.4435 68.8243 78.3045 69.0497 78.2049C69.2752 78.1053 69.5164 78.0555 69.7733 78.0555C70.1194 78.0555 70.4287 78.1289 70.7013 78.2757C70.974 78.4225 71.1837 78.6349 71.3305 78.9128C71.4616 78.6506 71.6661 78.4435 71.944 78.2914C72.2219 78.1341 72.5207 78.0555 72.8406 78.0555ZM76.7027 78.7712C76.8547 78.5615 77.0618 78.3911 77.324 78.26C77.5914 78.1237 77.8876 78.0555 78.2127 78.0555C78.5955 78.0555 78.9415 78.1472 79.2509 78.3308C79.5602 78.5143 79.804 78.7764 79.9823 79.1172C80.1606 79.4528 80.2497 79.8382 80.2497 80.2734C80.2497 80.7085 80.1606 81.0992 79.9823 81.4452C79.804 81.786 79.5576 82.0534 79.243 82.2474C78.9336 82.4362 78.5902 82.5306 78.2127 82.5306C77.8771 82.5306 77.5783 82.465 77.3161 82.3339C77.0592 82.2029 76.8547 82.0351 76.7027 81.8306V82.4598H75.8061V76.6398H76.7027V78.7712ZM79.3374 80.2734C79.3374 79.9745 79.2745 79.7176 79.1486 79.5026C79.028 79.2824 78.8655 79.1172 78.661 79.0071C78.4618 78.8918 78.2468 78.8341 78.0161 78.8341C77.7906 78.8341 77.5757 78.8918 77.3712 79.0071C77.1719 79.1225 77.0094 79.2903 76.8836 79.5105C76.763 79.7307 76.7027 79.9902 76.7027 80.2891C76.7027 80.588 76.763 80.8501 76.8836 81.0756C77.0094 81.2958 77.1719 81.4636 77.3712 81.5789C77.5757 81.6943 77.7906 81.7519 78.0161 81.7519C78.2468 81.7519 78.4618 81.6943 78.661 81.5789C78.8655 81.4583 79.028 81.2853 79.1486 81.0598C79.2745 80.8344 79.3374 80.5722 79.3374 80.2734ZM81.6318 77.5521C81.4693 77.5521 81.3329 77.4971 81.2228 77.387C81.1127 77.2769 81.0577 77.1406 81.0577 76.978C81.0577 76.8155 81.1127 76.6792 81.2228 76.569C81.3329 76.4589 81.4693 76.4039 81.6318 76.4039C81.7891 76.4039 81.9228 76.4589 82.0329 76.569C82.143 76.6792 82.1981 76.8155 82.1981 76.978C82.1981 77.1406 82.143 77.2769 82.0329 77.387C81.9228 77.4971 81.7891 77.5521 81.6318 77.5521ZM82.0722 78.1263V82.4598H81.1756V78.1263H82.0722ZM85.4751 78.0555C85.8159 78.0555 86.12 78.1263 86.3874 78.2678C86.6601 78.4094 86.8724 78.6191 87.0245 78.897C87.1765 79.1749 87.2525 79.5105 87.2525 79.9037V82.4598H86.3638V80.0374C86.3638 79.6494 86.2668 79.3532 86.0728 79.1487C85.8788 78.939 85.614 78.8341 85.2785 78.8341C84.9429 78.8341 84.6755 78.939 84.4763 79.1487C84.2823 79.3532 84.1853 79.6494 84.1853 80.0374V82.4598H83.2887V78.1263H84.1853V78.6218C84.3321 78.4435 84.5182 78.3045 84.7437 78.2049C84.9744 78.1053 85.2182 78.0555 85.4751 78.0555ZM92.4072 80.1868C92.4072 80.3494 92.3967 80.4962 92.3758 80.6273H89.0647C89.0909 80.9733 89.2194 81.2512 89.4501 81.4609C89.6808 81.6707 89.9639 81.7755 90.2995 81.7755C90.7818 81.7755 91.1226 81.5737 91.3219 81.1699H92.2893C92.1582 81.5684 91.9196 81.8961 91.5736 82.153C91.2327 82.4047 90.8081 82.5306 90.2995 82.5306C89.8852 82.5306 89.513 82.4388 89.1827 82.2553C88.8576 82.0665 88.6007 81.8044 88.4119 81.4688C88.2284 81.128 88.1366 80.7348 88.1366 80.2891C88.1366 79.8434 88.2258 79.4528 88.404 79.1172C88.5876 78.7764 88.8419 78.5143 89.1669 78.3308C89.4973 78.1472 89.8748 78.0555 90.2995 78.0555C90.7084 78.0555 91.0728 78.1446 91.3927 78.3229C91.7125 78.5012 91.9616 78.7528 92.1398 79.0779C92.3181 79.3977 92.4072 79.7674 92.4072 80.1868ZM91.4713 79.9037C91.4661 79.5734 91.3481 79.3086 91.1174 79.1094C90.8867 78.9101 90.6009 78.8105 90.2601 78.8105C89.9508 78.8105 89.686 78.9101 89.4658 79.1094C89.2456 79.3034 89.1145 79.5682 89.0726 79.9037H91.4713ZM93.03 80.2734C93.03 79.8382 93.1191 79.4528 93.2974 79.1172C93.4809 78.7817 93.7274 78.5221 94.0367 78.3386C94.3513 78.1499 94.7 78.0555 95.0827 78.0555C95.3659 78.0555 95.6437 78.1184 95.9164 78.2442C96.1943 78.3648 96.4145 78.5274 96.577 78.7319V76.6398H97.4815V82.4598H96.577V81.807C96.4302 82.0167 96.2257 82.1897 95.9636 82.3261C95.7067 82.4624 95.4104 82.5306 95.0749 82.5306C94.6973 82.5306 94.3513 82.4362 94.0367 82.2474C93.7274 82.0534 93.4809 81.786 93.2974 81.4452C93.1191 81.0992 93.03 80.7085 93.03 80.2734ZM96.577 80.2891C96.577 79.9902 96.5141 79.7307 96.3883 79.5105C96.2677 79.2903 96.1078 79.1225 95.9085 79.0071C95.7093 78.8918 95.4943 78.8341 95.2636 78.8341C95.0329 78.8341 94.8179 78.8918 94.6187 79.0071C94.4195 79.1172 94.2569 79.2824 94.1311 79.5026C94.0105 79.7176 93.9502 79.9745 93.9502 80.2734C93.9502 80.5722 94.0105 80.8344 94.1311 81.0598C94.2569 81.2853 94.4195 81.4583 94.6187 81.5789C94.8232 81.6943 95.0382 81.7519 95.2636 81.7519C95.4943 81.7519 95.7093 81.6943 95.9085 81.5789C96.1078 81.4636 96.2677 81.2958 96.3883 81.0756C96.5141 80.8501 96.577 80.588 96.577 80.2891ZM102.527 78.0555C102.862 78.0555 103.159 78.1237 103.415 78.26C103.678 78.3911 103.882 78.5562 104.029 78.7555V78.1263H104.933V82.5306C104.933 82.929 104.849 83.283 104.682 83.5923C104.514 83.9069 104.27 84.1533 103.95 84.3316C103.636 84.5099 103.258 84.599 102.818 84.599C102.23 84.599 101.743 84.46 101.355 84.1822C100.967 83.9095 100.747 83.5372 100.694 83.0654H101.583C101.651 83.2908 101.795 83.4717 102.016 83.608C102.241 83.7496 102.508 83.8204 102.818 83.8204C103.18 83.8204 103.471 83.7103 103.691 83.4901C103.916 83.2698 104.029 82.95 104.029 82.5306V81.807C103.877 82.0115 103.67 82.1845 103.408 82.3261C103.151 82.4624 102.857 82.5306 102.527 82.5306C102.149 82.5306 101.803 82.4362 101.489 82.2474C101.179 82.0534 100.933 81.786 100.749 81.4452C100.571 81.0992 100.482 80.7085 100.482 80.2734C100.482 79.8382 100.571 79.4528 100.749 79.1172C100.933 78.7817 101.179 78.5221 101.489 78.3386C101.803 78.1499 102.149 78.0555 102.527 78.0555ZM104.029 80.2891C104.029 79.9902 103.966 79.7307 103.84 79.5105C103.72 79.2903 103.56 79.1225 103.36 79.0071C103.161 78.8918 102.946 78.8341 102.715 78.8341C102.485 78.8341 102.27 78.8918 102.071 79.0071C101.871 79.1172 101.709 79.2824 101.583 79.5026C101.462 79.7176 101.402 79.9745 101.402 80.2734C101.402 80.5722 101.462 80.8344 101.583 81.0598C101.709 81.2853 101.871 81.4583 102.071 81.5789C102.275 81.6943 102.49 81.7519 102.715 81.7519C102.946 81.7519 103.161 81.6943 103.36 81.5789C103.56 81.4636 103.72 81.2958 103.84 81.0756C103.966 80.8501 104.029 80.588 104.029 80.2891ZM108.03 82.5306C107.621 82.5306 107.251 82.4388 106.921 82.2553C106.591 82.0665 106.331 81.8044 106.142 81.4688C105.954 81.128 105.859 80.7348 105.859 80.2891C105.859 79.8487 105.956 79.458 106.15 79.1172C106.344 78.7764 106.609 78.5143 106.945 78.3308C107.28 78.1472 107.655 78.0555 108.069 78.0555C108.484 78.0555 108.858 78.1472 109.194 78.3308C109.53 78.5143 109.794 78.7764 109.988 79.1172C110.182 79.458 110.279 79.8487 110.279 80.2891C110.279 80.7295 110.18 81.1201 109.98 81.4609C109.781 81.8018 109.509 82.0665 109.163 82.2553C108.822 82.4388 108.444 82.5306 108.03 82.5306ZM108.03 81.7519C108.261 81.7519 108.476 81.6969 108.675 81.5868C108.879 81.4767 109.045 81.3115 109.17 81.0913C109.296 80.8711 109.359 80.6037 109.359 80.2891C109.359 79.9745 109.299 79.7097 109.178 79.4947C109.058 79.2745 108.898 79.1094 108.698 78.9993C108.499 78.8892 108.284 78.8341 108.054 78.8341C107.823 78.8341 107.608 78.8892 107.409 78.9993C107.215 79.1094 107.06 79.2745 106.945 79.4947C106.829 79.7097 106.772 79.9745 106.772 80.2891C106.772 80.7557 106.89 81.1175 107.126 81.3744C107.367 81.6261 107.668 81.7519 108.03 81.7519ZM113.085 82.5306C112.676 82.5306 112.306 82.4388 111.976 82.2553C111.645 82.0665 111.386 81.8044 111.197 81.4688C111.008 81.128 110.914 80.7348 110.914 80.2891C110.914 79.8487 111.011 79.458 111.205 79.1172C111.399 78.7764 111.664 78.5143 111.999 78.3308C112.335 78.1472 112.71 78.0555 113.124 78.0555C113.538 78.0555 113.913 78.1472 114.249 78.3308C114.584 78.5143 114.849 78.7764 115.043 79.1172C115.237 79.458 115.334 79.8487 115.334 80.2891C115.334 80.7295 115.234 81.1201 115.035 81.4609C114.836 81.8018 114.563 82.0665 114.217 82.2553C113.876 82.4388 113.499 82.5306 113.085 82.5306ZM113.085 81.7519C113.315 81.7519 113.53 81.6969 113.73 81.5868C113.934 81.4767 114.099 81.3115 114.225 81.0913C114.351 80.8711 114.414 80.6037 114.414 80.2891C114.414 79.9745 114.354 79.7097 114.233 79.4947C114.112 79.2745 113.952 79.1094 113.753 78.9993C113.554 78.8892 113.339 78.8341 113.108 78.8341C112.878 78.8341 112.663 78.8892 112.463 78.9993C112.269 79.1094 112.115 79.2745 111.999 79.4947C111.884 79.7097 111.826 79.9745 111.826 80.2891C111.826 80.7557 111.944 81.1175 112.18 81.3744C112.421 81.6261 112.723 81.7519 113.085 81.7519ZM115.961 80.2734C115.961 79.8382 116.05 79.4528 116.228 79.1172C116.412 78.7817 116.658 78.5221 116.967 78.3386C117.282 78.1499 117.631 78.0555 118.013 78.0555C118.297 78.0555 118.574 78.1184 118.847 78.2442C119.125 78.3648 119.345 78.5274 119.508 78.7319V76.6398H120.412V82.4598H119.508V81.807C119.361 82.0167 119.156 82.1897 118.894 82.3261C118.637 82.4624 118.341 82.5306 118.006 82.5306C117.628 82.5306 117.282 82.4362 116.967 82.2474C116.658 82.0534 116.412 81.786 116.228 81.4452C116.05 81.0992 115.961 80.7085 115.961 80.2734ZM119.508 80.2891C119.508 79.9902 119.445 79.7307 119.319 79.5105C119.198 79.2903 119.039 79.1225 118.839 79.0071C118.64 78.8918 118.425 78.8341 118.194 78.8341C117.964 78.8341 117.749 78.8918 117.549 79.0071C117.35 79.1172 117.188 79.2824 117.062 79.5026C116.941 79.7176 116.881 79.9745 116.881 80.2734C116.881 80.5722 116.941 80.8344 117.062 81.0598C117.188 81.2853 117.35 81.4583 117.549 81.5789C117.754 81.6943 117.969 81.7519 118.194 81.7519C118.425 81.7519 118.64 81.6943 118.839 81.5789C119.039 81.4636 119.198 81.2958 119.319 81.0756C119.445 80.8501 119.508 80.588 119.508 80.2891ZM70.093 89.5521C69.9305 89.5521 69.7941 89.4971 69.684 89.387C69.5739 89.2769 69.5189 89.1406 69.5189 88.978C69.5189 88.8155 69.5739 88.6792 69.684 88.569C69.7941 88.4589 69.9305 88.4039 70.093 88.4039C70.2503 88.4039 70.384 88.4589 70.4941 88.569C70.6042 88.6792 70.6593 88.8155 70.6593 88.978C70.6593 89.1406 70.6042 89.2769 70.4941 89.387C70.384 89.4971 70.2503 89.5521 70.093 89.5521ZM70.5334 90.1263V94.4598H69.6368V90.1263H70.5334ZM73.9363 90.0555C74.2771 90.0555 74.5812 90.1263 74.8486 90.2678C75.1213 90.4094 75.3336 90.6191 75.4857 90.897C75.6377 91.1749 75.7137 91.5105 75.7137 91.9037V94.4598H74.825V92.0374C74.825 91.6494 74.728 91.3532 74.534 91.1487C74.34 90.939 74.0752 90.8341 73.7397 90.8341C73.4041 90.8341 73.1367 90.939 72.9375 91.1487C72.7435 91.3532 72.6465 91.6494 72.6465 92.0374V94.4598H71.7499V90.1263H72.6465V90.6218C72.7933 90.4435 72.9794 90.3045 73.2049 90.2049C73.4356 90.1053 73.6794 90.0555 73.9363 90.0555ZM77.9427 90.8577V93.2565C77.9427 93.419 77.9794 93.537 78.0528 93.6104C78.1315 93.6785 78.2626 93.7126 78.4461 93.7126H78.9966V94.4598H78.2888C77.885 94.4598 77.5757 94.3654 77.3607 94.1766C77.1458 93.9879 77.0383 93.6812 77.0383 93.2565V90.8577H76.5271V90.1263H77.0383V89.0488H77.9427V90.1263H78.9966V90.8577H77.9427ZM83.834 92.1868C83.834 92.3494 83.8235 92.4962 83.8025 92.6273H80.4915C80.5177 92.9733 80.6461 93.2512 80.8768 93.4609C81.1075 93.6707 81.3907 93.7755 81.7262 93.7755C82.2086 93.7755 82.5494 93.5737 82.7487 93.1699H83.716C83.5849 93.5684 83.3464 93.8961 83.0003 94.153C82.6595 94.4047 82.2348 94.5306 81.7262 94.5306C81.312 94.5306 80.9398 94.4388 80.6094 94.2553C80.2844 94.0665 80.0274 93.8044 79.8387 93.4688C79.6552 93.128 79.5634 92.7348 79.5634 92.2891C79.5634 91.8434 79.6526 91.4528 79.8308 91.1172C80.0143 90.7764 80.2686 90.5143 80.5937 90.3308C80.924 90.1472 81.3015 90.0555 81.7262 90.0555C82.1352 90.0555 82.4996 90.1446 82.8194 90.3229C83.1393 90.5012 83.3883 90.7528 83.5666 91.0779C83.7449 91.3977 83.834 91.7674 83.834 92.1868ZM82.8981 91.9037C82.8928 91.5734 82.7749 91.3086 82.5442 91.1094C82.3135 90.9101 82.0277 90.8105 81.6869 90.8105C81.3776 90.8105 81.1128 90.9101 80.8926 91.1094C80.6724 91.3034 80.5413 91.5682 80.4993 91.9037H82.8981ZM85.6522 90.7555C85.7833 90.5352 85.9563 90.3648 86.1713 90.2442C86.3915 90.1184 86.6511 90.0555 86.9499 90.0555V90.9835H86.7218C86.3706 90.9835 86.1031 91.0727 85.9196 91.2509C85.7414 91.4292 85.6522 91.7386 85.6522 92.179V94.4598H84.7556V90.1263H85.6522V90.7555ZM93.0592 90.0555C93.4 90.0555 93.7041 90.1263 93.9715 90.2678C94.2442 90.4094 94.4565 90.6191 94.6086 90.897C94.7659 91.1749 94.8445 91.5105 94.8445 91.9037V94.4598H93.9558V92.0374C93.9558 91.6494 93.8588 91.3532 93.6648 91.1487C93.4708 90.939 93.206 90.8341 92.8704 90.8341C92.5349 90.8341 92.2675 90.939 92.0682 91.1487C91.8742 91.3532 91.7772 91.6494 91.7772 92.0374V94.4598H90.8885V92.0374C90.8885 91.6494 90.7915 91.3532 90.5975 91.1487C90.4035 90.939 90.1387 90.8341 89.8032 90.8341C89.4676 90.8341 89.2002 90.939 89.001 91.1487C88.807 91.3532 88.71 91.6494 88.71 92.0374V94.4598H87.8134V90.1263H88.71V90.6218C88.8568 90.4435 89.0429 90.3045 89.2684 90.2049C89.4938 90.1053 89.735 90.0555 89.9919 90.0555C90.338 90.0555 90.6473 90.1289 90.92 90.2757C91.1926 90.4225 91.4024 90.6349 91.5492 90.9128C91.6802 90.6506 91.8847 90.4435 92.1626 90.2914C92.4405 90.1341 92.7394 90.0555 93.0592 90.0555ZM99.9964 92.1868C99.9964 92.3494 99.9859 92.4962 99.965 92.6273H96.6539C96.6801 92.9733 96.8086 93.2512 97.0393 93.4609C97.27 93.6707 97.5531 93.7755 97.8887 93.7755C98.371 93.7755 98.7118 93.5737 98.9111 93.1699H99.8785C99.7474 93.5684 99.5088 93.8961 99.1628 94.153C98.822 94.4047 98.3973 94.5306 97.8887 94.5306C97.4745 94.5306 97.1022 94.4388 96.7719 94.2553C96.4468 94.0665 96.1899 93.8044 96.0011 93.4688C95.8176 93.128 95.7258 92.7348 95.7258 92.2891C95.7258 91.8434 95.815 91.4528 95.9933 91.1172C96.1768 90.7764 96.4311 90.5143 96.7561 90.3308C97.0865 90.1472 97.464 90.0555 97.8887 90.0555C98.2976 90.0555 98.662 90.1446 98.9819 90.3229C99.3017 90.5012 99.5508 90.7528 99.729 91.0779C99.9073 91.3977 99.9964 91.7674 99.9964 92.1868ZM99.0605 91.9037C99.0553 91.5734 98.9373 91.3086 98.7066 91.1094C98.4759 90.9101 98.1901 90.8105 97.8493 90.8105C97.54 90.8105 97.2752 90.9101 97.055 91.1094C96.8348 91.3034 96.7037 91.5682 96.6618 91.9037H99.0605ZM100.619 92.2734C100.619 91.8382 100.708 91.4528 100.887 91.1172C101.07 90.7817 101.317 90.5221 101.626 90.3386C101.941 90.1499 102.289 90.0555 102.672 90.0555C102.955 90.0555 103.233 90.1184 103.506 90.2442C103.783 90.3648 104.004 90.5274 104.166 90.7319V88.6398H105.071V94.4598H104.166V93.807C104.019 94.0167 103.815 94.1897 103.553 94.3261C103.296 94.4624 103 94.5306 102.664 94.5306C102.287 94.5306 101.941 94.4362 101.626 94.2474C101.317 94.0534 101.07 93.786 100.887 93.4452C100.708 93.0992 100.619 92.7085 100.619 92.2734ZM104.166 92.2891C104.166 91.9902 104.103 91.7307 103.977 91.5105C103.857 91.2903 103.697 91.1225 103.498 91.0071C103.298 90.8918 103.084 90.8341 102.853 90.8341C102.622 90.8341 102.407 90.8918 102.208 91.0071C102.009 91.1172 101.846 91.2824 101.72 91.5026C101.6 91.7176 101.539 91.9745 101.539 92.2734C101.539 92.5722 101.6 92.8344 101.72 93.0598C101.846 93.2853 102.009 93.4583 102.208 93.5789C102.412 93.6943 102.627 93.7519 102.853 93.7519C103.084 93.7519 103.298 93.6943 103.498 93.5789C103.697 93.4636 103.857 93.2958 103.977 93.0756C104.103 92.8501 104.166 92.588 104.166 92.2891ZM106.744 89.5521C106.581 89.5521 106.445 89.4971 106.335 89.387C106.225 89.2769 106.17 89.1406 106.17 88.978C106.17 88.8155 106.225 88.6792 106.335 88.569C106.445 88.4589 106.581 88.4039 106.744 88.4039C106.901 88.4039 107.035 88.4589 107.145 88.569C107.255 88.6792 107.31 88.8155 107.31 88.978C107.31 89.1406 107.255 89.2769 107.145 89.387C107.035 89.4971 106.901 89.5521 106.744 89.5521ZM107.184 90.1263V94.4598H106.288V90.1263H107.184ZM108.102 92.2734C108.102 91.8382 108.191 91.4528 108.369 91.1172C108.553 90.7817 108.799 90.5221 109.109 90.3386C109.423 90.1499 109.769 90.0555 110.147 90.0555C110.487 90.0555 110.784 90.1237 111.035 90.26C111.292 90.3911 111.497 90.5562 111.649 90.7555V90.1263H112.553V94.4598H111.649V93.8149C111.497 94.0193 111.29 94.1897 111.028 94.3261C110.765 94.4624 110.466 94.5306 110.131 94.5306C109.759 94.5306 109.418 94.4362 109.109 94.2474C108.799 94.0534 108.553 93.786 108.369 93.4452C108.191 93.0992 108.102 92.7085 108.102 92.2734ZM111.649 92.2891C111.649 91.9902 111.586 91.7307 111.46 91.5105C111.339 91.2903 111.18 91.1225 110.98 91.0071C110.781 90.8918 110.566 90.8341 110.335 90.8341C110.105 90.8341 109.89 90.8918 109.691 91.0071C109.491 91.1172 109.329 91.2824 109.203 91.5026C109.082 91.7176 109.022 91.9745 109.022 92.2734C109.022 92.5722 109.082 92.8344 109.203 93.0598C109.329 93.2853 109.491 93.4583 109.691 93.5789C109.895 93.6943 110.11 93.7519 110.335 93.7519C110.566 93.7519 110.781 93.6943 110.98 93.5789C111.18 93.4636 111.339 93.2958 111.46 93.0756C111.586 92.8501 111.649 92.588 111.649 92.2891ZM114.816 90.8577V93.2565C114.816 93.419 114.853 93.537 114.926 93.6104C115.005 93.6785 115.136 93.7126 115.32 93.7126H115.87V94.4598H115.162C114.759 94.4598 114.449 94.3654 114.234 94.1766C114.019 93.9879 113.912 93.6812 113.912 93.2565V90.8577H113.401V90.1263H113.912V89.0488H114.816V90.1263H115.87V90.8577H114.816ZM120.708 92.1868C120.708 92.3494 120.697 92.4962 120.676 92.6273H117.365C117.391 92.9733 117.52 93.2512 117.75 93.4609C117.981 93.6707 118.264 93.7755 118.6 93.7755C119.082 93.7755 119.423 93.5737 119.622 93.1699H120.59C120.458 93.5684 120.22 93.8961 119.874 94.153C119.533 94.4047 119.108 94.5306 118.6 94.5306C118.186 94.5306 117.813 94.4388 117.483 94.2553C117.158 94.0665 116.901 93.8044 116.712 93.4688C116.529 93.128 116.437 92.7348 116.437 92.2891C116.437 91.8434 116.526 91.4528 116.704 91.1172C116.888 90.7764 117.142 90.5143 117.467 90.3308C117.798 90.1472 118.175 90.0555 118.6 90.0555C119.009 90.0555 119.373 90.1446 119.693 90.3229C120.013 90.5012 120.262 90.7528 120.44 91.0779C120.618 91.3977 120.708 91.7674 120.708 92.1868ZM119.772 91.9037C119.766 91.5734 119.648 91.3086 119.418 91.1094C119.187 90.9101 118.901 90.8105 118.56 90.8105C118.251 90.8105 117.986 90.9101 117.766 91.1094C117.546 91.3034 117.415 91.5682 117.373 91.9037H119.772ZM100.065 105.658L101.292 102.126H102.244L100.592 106.46H99.5228L97.8791 102.126H98.8386L100.065 105.658ZM103.417 101.552C103.255 101.552 103.118 101.497 103.008 101.387C102.898 101.277 102.843 101.141 102.843 100.978C102.843 100.815 102.898 100.679 103.008 100.569C103.118 100.459 103.255 100.404 103.417 100.404C103.575 100.404 103.708 100.459 103.818 100.569C103.928 100.679 103.983 100.815 103.983 100.978C103.983 101.141 103.928 101.277 103.818 101.387C103.708 101.497 103.575 101.552 103.417 101.552ZM103.858 102.126V106.46H102.961V102.126H103.858ZM106.647 106.531C106.306 106.531 106 106.47 105.727 106.35C105.459 106.224 105.247 106.056 105.09 105.846C104.933 105.631 104.849 105.393 104.838 105.131H105.766C105.782 105.314 105.868 105.469 106.026 105.595C106.188 105.715 106.39 105.776 106.631 105.776C106.883 105.776 107.077 105.728 107.213 105.634C107.355 105.534 107.426 105.409 107.426 105.256C107.426 105.094 107.347 104.973 107.19 104.895C107.038 104.816 106.794 104.73 106.458 104.635C106.133 104.546 105.868 104.459 105.664 104.376C105.459 104.292 105.281 104.163 105.129 103.99C104.982 103.817 104.909 103.589 104.909 103.306C104.909 103.075 104.977 102.866 105.113 102.677C105.25 102.483 105.444 102.331 105.695 102.221C105.952 102.111 106.246 102.055 106.576 102.055C107.069 102.055 107.465 102.181 107.764 102.433C108.068 102.679 108.231 103.018 108.251 103.448H107.355C107.339 103.254 107.261 103.099 107.119 102.984C106.977 102.868 106.786 102.811 106.545 102.811C106.309 102.811 106.128 102.855 106.002 102.944C105.876 103.033 105.813 103.151 105.813 103.298C105.813 103.413 105.855 103.51 105.939 103.589C106.023 103.668 106.125 103.731 106.246 103.778C106.367 103.82 106.545 103.875 106.781 103.943C107.095 104.027 107.352 104.113 107.552 104.203C107.756 104.286 107.932 104.412 108.078 104.58C108.225 104.748 108.301 104.971 108.307 105.249C108.307 105.495 108.238 105.715 108.102 105.909C107.966 106.103 107.772 106.255 107.52 106.365C107.274 106.475 106.983 106.531 106.647 106.531ZM109.771 101.552C109.608 101.552 109.472 101.497 109.362 101.387C109.252 101.277 109.197 101.141 109.197 100.978C109.197 100.815 109.252 100.679 109.362 100.569C109.472 100.459 109.608 100.404 109.771 100.404C109.928 100.404 110.062 100.459 110.172 100.569C110.282 100.679 110.337 100.815 110.337 100.978C110.337 101.141 110.282 101.277 110.172 101.387C110.062 101.497 109.928 101.552 109.771 101.552ZM110.211 102.126V106.46H109.315V102.126H110.211ZM113.307 106.531C112.898 106.531 112.529 106.439 112.198 106.255C111.868 106.067 111.609 105.804 111.42 105.469C111.231 105.128 111.137 104.735 111.137 104.289C111.137 103.849 111.234 103.458 111.428 103.117C111.622 102.776 111.886 102.514 112.222 102.331C112.558 102.147 112.932 102.055 113.347 102.055C113.761 102.055 114.136 102.147 114.471 102.331C114.807 102.514 115.072 102.776 115.266 103.117C115.46 103.458 115.557 103.849 115.557 104.289C115.557 104.73 115.457 105.12 115.258 105.461C115.059 105.802 114.786 106.067 114.44 106.255C114.099 106.439 113.722 106.531 113.307 106.531ZM113.307 105.752C113.538 105.752 113.753 105.697 113.952 105.587C114.157 105.477 114.322 105.312 114.448 105.091C114.574 104.871 114.637 104.604 114.637 104.289C114.637 103.974 114.576 103.71 114.456 103.495C114.335 103.275 114.175 103.109 113.976 102.999C113.777 102.889 113.562 102.834 113.331 102.834C113.1 102.834 112.885 102.889 112.686 102.999C112.492 103.109 112.337 103.275 112.222 103.495C112.107 103.71 112.049 103.974 112.049 104.289C112.049 104.756 112.167 105.118 112.403 105.374C112.644 105.626 112.946 105.752 113.307 105.752ZM118.669 102.055C119.01 102.055 119.314 102.126 119.581 102.268C119.854 102.409 120.066 102.619 120.218 102.897C120.37 103.175 120.446 103.51 120.446 103.904V106.46H119.557V104.037C119.557 103.649 119.46 103.353 119.266 103.149C119.072 102.939 118.808 102.834 118.472 102.834C118.137 102.834 117.869 102.939 117.67 103.149C117.476 103.353 117.379 103.649 117.379 104.037V106.46H116.482V102.126H117.379V102.622C117.526 102.443 117.712 102.305 117.937 102.205C118.168 102.105 118.412 102.055 118.669 102.055Z" fill="#C16066"/>
<path d="M299.908 21.6338C299.541 21.6338 299.211 21.5708 298.918 21.445C298.624 21.3139 298.393 21.1304 298.225 20.8945C298.058 20.6585 297.974 20.3833 297.974 20.0687H298.933C298.954 20.3046 299.046 20.4986 299.209 20.6507C299.376 20.8027 299.61 20.8787 299.908 20.8787C300.218 20.8787 300.459 20.8053 300.632 20.6585C300.805 20.5065 300.892 20.3125 300.892 20.0765C300.892 19.893 300.837 19.7436 300.726 19.6282C300.622 19.5129 300.488 19.4238 300.325 19.3608C300.168 19.2979 299.948 19.2298 299.665 19.1564C299.308 19.062 299.017 18.9676 298.792 18.8732C298.571 18.7736 298.383 18.6216 298.225 18.4171C298.068 18.2126 297.989 17.9399 297.989 17.5991C297.989 17.2845 298.068 17.0093 298.225 16.7733C298.383 16.5374 298.603 16.3565 298.886 16.2307C299.169 16.1048 299.497 16.0419 299.869 16.0419C300.399 16.0419 300.831 16.1756 301.167 16.443C301.508 16.7052 301.696 17.0669 301.733 17.5283H300.742C300.726 17.3291 300.632 17.1587 300.459 17.0171C300.286 16.8756 300.058 16.8048 299.775 16.8048C299.518 16.8048 299.308 16.8703 299.146 17.0014C298.983 17.1325 298.902 17.3212 298.902 17.5677C298.902 17.7355 298.952 17.8744 299.051 17.9845C299.156 18.0894 299.287 18.1733 299.444 18.2362C299.602 18.2991 299.817 18.3673 300.089 18.4407C300.451 18.5403 300.745 18.6399 300.97 18.7395C301.201 18.8391 301.395 18.9938 301.552 19.2035C301.715 19.408 301.796 19.6833 301.796 20.0294C301.796 20.3072 301.72 20.5694 301.568 20.8158C301.421 21.0623 301.204 21.2615 300.915 21.4136C300.632 21.5604 300.296 21.6338 299.908 21.6338ZM305.135 17.1744C305.465 17.1744 305.759 17.2452 306.016 17.3868C306.278 17.5283 306.482 17.7381 306.629 18.016C306.781 18.2939 306.857 18.6294 306.857 19.0227V21.5787H305.968V19.1564C305.968 18.7684 305.871 18.4721 305.677 18.2676C305.483 18.0579 305.219 17.953 304.883 17.953C304.548 17.953 304.28 18.0579 304.081 18.2676C303.887 18.4721 303.79 18.7684 303.79 19.1564V21.5787H302.893V15.7588H303.79V17.7486C303.942 17.5651 304.133 17.4235 304.364 17.3239C304.6 17.2242 304.857 17.1744 305.135 17.1744ZM307.741 19.3923C307.741 18.9571 307.83 18.5717 308.009 18.2362C308.192 17.9006 308.439 17.6411 308.748 17.4576C309.063 17.2688 309.409 17.1744 309.786 17.1744C310.127 17.1744 310.423 17.2426 310.675 17.3789C310.932 17.51 311.136 17.6752 311.288 17.8744V17.2452H312.193V21.5787H311.288V20.9338C311.136 21.1383 310.929 21.3087 310.667 21.445C310.405 21.5813 310.106 21.6495 309.77 21.6495C309.398 21.6495 309.057 21.5551 308.748 21.3664C308.439 21.1724 308.192 20.905 308.009 20.5642C307.83 20.2181 307.741 19.8275 307.741 19.3923ZM311.288 19.408C311.288 19.1092 311.225 18.8496 311.1 18.6294C310.979 18.4092 310.819 18.2414 310.62 18.1261C310.421 18.0107 310.206 17.953 309.975 17.953C309.744 17.953 309.529 18.0107 309.33 18.1261C309.131 18.2362 308.968 18.4013 308.842 18.6216C308.722 18.8365 308.661 19.0934 308.661 19.3923C308.661 19.6912 308.722 19.9533 308.842 20.1788C308.968 20.4042 309.131 20.5773 309.33 20.6979C309.534 20.8132 309.749 20.8709 309.975 20.8709C310.206 20.8709 310.421 20.8132 310.62 20.6979C310.819 20.5825 310.979 20.4147 311.1 20.1945C311.225 19.9691 311.288 19.7069 311.288 19.408ZM314.306 17.8744C314.437 17.6542 314.61 17.4838 314.825 17.3632C315.046 17.2374 315.305 17.1744 315.604 17.1744V18.1025H315.376C315.025 18.1025 314.757 18.1916 314.574 18.3699C314.395 18.5482 314.306 18.8575 314.306 19.2979V21.5787H313.41V17.2452H314.306V17.8744ZM317.364 17.8823C317.516 17.683 317.723 17.5152 317.985 17.3789C318.247 17.2426 318.544 17.1744 318.874 17.1744C319.252 17.1744 319.595 17.2688 319.904 17.4576C320.219 17.6411 320.465 17.9006 320.644 18.2362C320.822 18.5717 320.911 18.9571 320.911 19.3923C320.911 19.8275 320.822 20.2181 320.644 20.5642C320.465 20.905 320.219 21.1724 319.904 21.3664C319.595 21.5551 319.252 21.6495 318.874 21.6495C318.544 21.6495 318.25 21.584 317.993 21.4529C317.736 21.3166 317.527 21.1488 317.364 20.9495V23.6393H316.467V17.2452H317.364V17.8823ZM319.999 19.3923C319.999 19.0934 319.936 18.8365 319.81 18.6216C319.689 18.4013 319.527 18.2362 319.322 18.1261C319.123 18.0107 318.908 17.953 318.677 17.953C318.452 17.953 318.237 18.0107 318.032 18.1261C317.833 18.2414 317.671 18.4092 317.545 18.6294C317.424 18.8496 317.364 19.1092 317.364 19.408C317.364 19.7069 317.424 19.9691 317.545 20.1945C317.671 20.4147 317.833 20.5825 318.032 20.6979C318.237 20.8132 318.452 20.8709 318.677 20.8709C318.908 20.8709 319.123 20.8132 319.322 20.6979C319.527 20.5773 319.689 20.4042 319.81 20.1788C319.936 19.9533 319.999 19.6912 319.999 19.3923ZM323.62 19.3923C323.62 18.9571 323.71 18.5717 323.888 18.2362C324.071 17.9006 324.318 17.6411 324.627 17.4576C324.942 17.2688 325.29 17.1744 325.673 17.1744C325.956 17.1744 326.234 17.2374 326.507 17.3632C326.785 17.4838 327.005 17.6463 327.167 17.8508V15.7588H328.072V21.5787H327.167V20.9259C327.021 21.1357 326.816 21.3087 326.554 21.445C326.297 21.5813 326.001 21.6495 325.665 21.6495C325.288 21.6495 324.942 21.5551 324.627 21.3664C324.318 21.1724 324.071 20.905 323.888 20.5642C323.71 20.2181 323.62 19.8275 323.62 19.3923ZM327.167 19.408C327.167 19.1092 327.105 18.8496 326.979 18.6294C326.858 18.4092 326.698 18.2414 326.499 18.1261C326.3 18.0107 326.085 17.953 325.854 17.953C325.623 17.953 325.408 18.0107 325.209 18.1261C325.01 18.2362 324.847 18.4013 324.721 18.6216C324.601 18.8365 324.541 19.0934 324.541 19.3923C324.541 19.6912 324.601 19.9533 324.721 20.1788C324.847 20.4042 325.01 20.5773 325.209 20.6979C325.414 20.8132 325.629 20.8709 325.854 20.8709C326.085 20.8709 326.3 20.8132 326.499 20.6979C326.698 20.5825 326.858 20.4147 326.979 20.1945C327.105 19.9691 327.167 19.7069 327.167 19.408ZM329.745 16.6711C329.582 16.6711 329.446 16.616 329.336 16.5059C329.226 16.3958 329.171 16.2595 329.171 16.097C329.171 15.9344 329.226 15.7981 329.336 15.688C329.446 15.5779 329.582 15.5228 329.745 15.5228C329.902 15.5228 330.036 15.5779 330.146 15.688C330.256 15.7981 330.311 15.9344 330.311 16.097C330.311 16.2595 330.256 16.3958 330.146 16.5059C330.036 16.616 329.902 16.6711 329.745 16.6711ZM330.185 17.2452V21.5787H329.289V17.2452H330.185ZM332.975 21.6495C332.634 21.6495 332.327 21.5892 332.055 21.4686C331.787 21.3428 331.575 21.175 331.418 20.9653C331.26 20.7503 331.176 20.5117 331.166 20.2496H332.094C332.11 20.4331 332.196 20.5878 332.354 20.7136C332.516 20.8342 332.718 20.8945 332.959 20.8945C333.211 20.8945 333.405 20.8473 333.541 20.7529C333.683 20.6533 333.753 20.5275 333.753 20.3754C333.753 20.2129 333.675 20.0923 333.518 20.0136C333.365 19.935 333.122 19.8485 332.786 19.7541C332.461 19.6649 332.196 19.5784 331.992 19.4945C331.787 19.4107 331.609 19.2822 331.457 19.1092C331.31 18.9361 331.237 18.7081 331.237 18.4249C331.237 18.1942 331.305 17.9845 331.441 17.7958C331.578 17.6018 331.772 17.4497 332.023 17.3396C332.28 17.2295 332.574 17.1744 332.904 17.1744C333.397 17.1744 333.793 17.3003 334.092 17.5519C334.396 17.7984 334.558 18.1366 334.579 18.5665H333.683C333.667 18.3725 333.588 18.2178 333.447 18.1025C333.305 17.9871 333.114 17.9295 332.873 17.9295C332.637 17.9295 332.456 17.974 332.33 18.0632C332.204 18.1523 332.141 18.2703 332.141 18.4171C332.141 18.5324 332.183 18.6294 332.267 18.7081C332.351 18.7867 332.453 18.8496 332.574 18.8968C332.694 18.9388 332.873 18.9938 333.109 19.062C333.423 19.1459 333.68 19.2324 333.879 19.3215C334.084 19.4054 334.259 19.5312 334.406 19.699C334.553 19.8668 334.629 20.0896 334.634 20.3675C334.634 20.614 334.566 20.8342 334.43 21.0282C334.293 21.2222 334.099 21.3742 333.848 21.4843C333.601 21.5944 333.31 21.6495 332.975 21.6495ZM336.688 17.9766V20.3754C336.688 20.5379 336.725 20.6559 336.799 20.7293C336.877 20.7975 337.008 20.8316 337.192 20.8316H337.742V21.5787H337.034C336.631 21.5787 336.321 21.4843 336.106 21.2956C335.891 21.1068 335.784 20.8001 335.784 20.3754V17.9766H335.273V17.2452H335.784V16.1677H336.688V17.2452H337.742V17.9766H336.688ZM338.309 19.3923C338.309 18.9571 338.398 18.5717 338.577 18.2362C338.76 17.9006 339.006 17.6411 339.316 17.4576C339.63 17.2688 339.976 17.1744 340.354 17.1744C340.695 17.1744 340.991 17.2426 341.243 17.3789C341.5 17.51 341.704 17.6752 341.856 17.8744V17.2452H342.761V21.5787H341.856V20.9338C341.704 21.1383 341.497 21.3087 341.235 21.445C340.973 21.5813 340.674 21.6495 340.338 21.6495C339.966 21.6495 339.625 21.5551 339.316 21.3664C339.006 21.1724 338.76 20.905 338.577 20.5642C338.398 20.2181 338.309 19.8275 338.309 19.3923ZM341.856 19.408C341.856 19.1092 341.793 18.8496 341.667 18.6294C341.547 18.4092 341.387 18.2414 341.188 18.1261C340.988 18.0107 340.773 17.953 340.543 17.953C340.312 17.953 340.097 18.0107 339.898 18.1261C339.699 18.2362 339.536 18.4013 339.41 18.6216C339.29 18.8365 339.229 19.0934 339.229 19.3923C339.229 19.6912 339.29 19.9533 339.41 20.1788C339.536 20.4042 339.699 20.5773 339.898 20.6979C340.102 20.8132 340.317 20.8709 340.543 20.8709C340.773 20.8709 340.988 20.8132 341.188 20.6979C341.387 20.5825 341.547 20.4147 341.667 20.1945C341.793 19.9691 341.856 19.7069 341.856 19.408ZM346.164 17.1744C346.505 17.1744 346.809 17.2452 347.076 17.3868C347.349 17.5283 347.561 17.7381 347.713 18.016C347.865 18.2939 347.941 18.6294 347.941 19.0227V21.5787H347.053V19.1564C347.053 18.7684 346.956 18.4721 346.762 18.2676C346.568 18.0579 346.303 17.953 345.967 17.953C345.632 17.953 345.364 18.0579 345.165 18.2676C344.971 18.4721 344.874 18.7684 344.874 19.1564V21.5787H343.978V17.2452H344.874V17.7407C345.021 17.5624 345.207 17.4235 345.433 17.3239C345.663 17.2242 345.907 17.1744 346.164 17.1744ZM348.826 19.408C348.826 18.9624 348.915 18.5717 349.093 18.2362C349.276 17.8954 349.528 17.6332 349.848 17.4497C350.168 17.2662 350.535 17.1744 350.949 17.1744C351.473 17.1744 351.906 17.3003 352.247 17.5519C352.593 17.7984 352.826 18.1523 352.947 18.6137H351.979C351.901 18.3987 351.775 18.2309 351.602 18.1103C351.429 17.9898 351.211 17.9295 350.949 17.9295C350.582 17.9295 350.288 18.0605 350.068 18.3227C349.853 18.5796 349.746 18.9414 349.746 19.408C349.746 19.8747 349.853 20.2391 350.068 20.5012C350.288 20.7634 350.582 20.8945 350.949 20.8945C351.468 20.8945 351.811 20.6664 351.979 20.2102H352.947C352.821 20.6507 352.585 21.002 352.239 21.2641C351.893 21.521 351.463 21.6495 350.949 21.6495C350.535 21.6495 350.168 21.5577 349.848 21.3742C349.528 21.1855 349.276 20.9233 349.093 20.5878C348.915 20.2469 348.826 19.8537 348.826 19.408ZM357.851 19.3058C357.851 19.4683 357.841 19.6151 357.82 19.7462H354.509C354.535 20.0923 354.663 20.3702 354.894 20.5799C355.125 20.7896 355.408 20.8945 355.743 20.8945C356.226 20.8945 356.567 20.6926 356.766 20.2889H357.733C357.602 20.6874 357.364 21.0151 357.018 21.272C356.677 21.5237 356.252 21.6495 355.743 21.6495C355.329 21.6495 354.957 21.5577 354.627 21.3742C354.302 21.1855 354.045 20.9233 353.856 20.5878C353.672 20.2469 353.581 19.8537 353.581 19.408C353.581 18.9624 353.67 18.5717 353.848 18.2362C354.032 17.8954 354.286 17.6332 354.611 17.4497C354.941 17.2662 355.319 17.1744 355.743 17.1744C356.152 17.1744 356.517 17.2636 356.837 17.4418C357.156 17.6201 357.406 17.8718 357.584 18.1969C357.762 18.5167 357.851 18.8863 357.851 19.3058ZM356.915 19.0227C356.91 18.6923 356.792 18.4276 356.561 18.2283C356.331 18.0291 356.045 17.9295 355.704 17.9295C355.395 17.9295 355.13 18.0291 354.91 18.2283C354.69 18.4223 354.558 18.6871 354.517 19.0227H356.915ZM299.783 32.7765L301.01 29.2452H301.961L300.31 33.5787H299.24L297.596 29.2452H298.556L299.783 32.7765ZM303.134 28.6711C302.972 28.6711 302.836 28.616 302.725 28.5059C302.615 28.3958 302.56 28.2595 302.56 28.097C302.56 27.9344 302.615 27.7981 302.725 27.688C302.836 27.5779 302.972 27.5228 303.134 27.5228C303.292 27.5228 303.425 27.5779 303.535 27.688C303.646 27.7981 303.701 27.9344 303.701 28.097C303.701 28.2595 303.646 28.3958 303.535 28.5059C303.425 28.616 303.292 28.6711 303.134 28.6711ZM303.575 29.2452V33.5787H302.678V29.2452H303.575ZM306.364 33.6495C306.023 33.6495 305.717 33.5892 305.444 33.4686C305.177 33.3428 304.964 33.175 304.807 32.9653C304.65 32.7503 304.566 32.5117 304.555 32.2496H305.483C305.499 32.4331 305.586 32.5878 305.743 32.7136C305.905 32.8342 306.107 32.8945 306.348 32.8945C306.6 32.8945 306.794 32.8473 306.93 32.7529C307.072 32.6533 307.143 32.5275 307.143 32.3754C307.143 32.2129 307.064 32.0923 306.907 32.0136C306.755 31.935 306.511 31.8485 306.175 31.7541C305.85 31.6649 305.586 31.5784 305.381 31.4945C305.177 31.4107 304.998 31.2822 304.846 31.1092C304.7 30.9361 304.626 30.7081 304.626 30.4249C304.626 30.1942 304.694 29.9845 304.831 29.7958C304.967 29.6018 305.161 29.4497 305.413 29.3396C305.67 29.2295 305.963 29.1744 306.293 29.1744C306.786 29.1744 307.182 29.3003 307.481 29.5519C307.785 29.7984 307.948 30.1366 307.969 30.5665H307.072C307.056 30.3725 306.978 30.2178 306.836 30.1025C306.695 29.9871 306.503 29.9295 306.262 29.9295C306.026 29.9295 305.845 29.974 305.719 30.0632C305.593 30.1523 305.531 30.2703 305.531 30.4171C305.531 30.5324 305.573 30.6294 305.656 30.7081C305.74 30.7867 305.843 30.8496 305.963 30.8968C306.084 30.9388 306.262 30.9938 306.498 31.062C306.813 31.1459 307.069 31.2324 307.269 31.3215C307.473 31.4054 307.649 31.5312 307.796 31.699C307.942 31.8668 308.018 32.0896 308.024 32.3675C308.024 32.614 307.956 32.8342 307.819 33.0282C307.683 33.2222 307.489 33.3742 307.237 33.4843C306.991 33.5944 306.7 33.6495 306.364 33.6495ZM309.488 28.6711C309.325 28.6711 309.189 28.616 309.079 28.5059C308.969 28.3958 308.914 28.2595 308.914 28.097C308.914 27.9344 308.969 27.7981 309.079 27.688C309.189 27.5779 309.325 27.5228 309.488 27.5228C309.645 27.5228 309.779 27.5779 309.889 27.688C309.999 27.7981 310.054 27.9344 310.054 28.097C310.054 28.2595 309.999 28.3958 309.889 28.5059C309.779 28.616 309.645 28.6711 309.488 28.6711ZM309.928 29.2452V33.5787H309.032V29.2452H309.928ZM313.025 33.6495C312.616 33.6495 312.246 33.5577 311.916 33.3742C311.585 33.1855 311.326 32.9233 311.137 32.5878C310.948 32.2469 310.854 31.8537 310.854 31.408C310.854 30.9676 310.951 30.577 311.145 30.2362C311.339 29.8954 311.604 29.6332 311.939 29.4497C312.275 29.2662 312.65 29.1744 313.064 29.1744C313.478 29.1744 313.853 29.2662 314.189 29.4497C314.524 29.6332 314.789 29.8954 314.983 30.2362C315.177 30.577 315.274 30.9676 315.274 31.408C315.274 31.8485 315.174 32.2391 314.975 32.5799C314.776 32.9207 314.503 33.1855 314.157 33.3742C313.816 33.5577 313.439 33.6495 313.025 33.6495ZM313.025 32.8709C313.255 32.8709 313.47 32.8158 313.669 32.7057C313.874 32.5956 314.039 32.4305 314.165 32.2102C314.291 31.99 314.354 31.7226 314.354 31.408C314.354 31.0934 314.293 30.8287 314.173 30.6137C314.052 30.3935 313.892 30.2283 313.693 30.1182C313.494 30.0081 313.279 29.953 313.048 29.953C312.817 29.953 312.602 30.0081 312.403 30.1182C312.209 30.2283 312.055 30.3935 311.939 30.6137C311.824 30.8287 311.766 31.0934 311.766 31.408C311.766 31.8747 311.884 32.2365 312.12 32.4934C312.361 32.745 312.663 32.8709 313.025 32.8709ZM318.386 29.1744C318.727 29.1744 319.031 29.2452 319.298 29.3868C319.571 29.5283 319.783 29.7381 319.935 30.016C320.087 30.2939 320.163 30.6294 320.163 31.0227V33.5787H319.275V31.1564C319.275 30.7684 319.178 30.4721 318.984 30.2676C318.79 30.0579 318.525 29.953 318.189 29.953C317.854 29.953 317.586 30.0579 317.387 30.2676C317.193 30.4721 317.096 30.7684 317.096 31.1564V33.5787H316.2V29.2452H317.096V29.7407C317.243 29.5624 317.429 29.4235 317.654 29.3239C317.885 29.2242 318.129 29.1744 318.386 29.1744Z" fill="#C16066"/>
<path d="M295.826 224.826H294.437L290.259 218.505V224.826H288.871V216.349H290.259L294.437 222.658V216.349H295.826V224.826ZM299.098 217.481V219.966H302.021V221.099H299.098V223.693H302.387V224.826H297.71V216.349H302.387V217.481H299.098ZM309.261 223.096H305.717L305.108 224.826H303.659L306.691 216.349H308.299L311.332 224.826H309.87L309.261 223.096ZM308.871 221.964L307.495 218.03L306.107 221.964H308.871ZM317.108 224.826L315.159 221.44H314.1V224.826H312.711V216.361H315.634C316.284 216.361 316.832 216.475 317.279 216.702C317.733 216.929 318.07 217.234 318.29 217.615C318.517 217.997 318.631 218.423 318.631 218.894C318.631 219.446 318.468 219.95 318.143 220.405C317.827 220.851 317.336 221.156 316.67 221.318L318.765 224.826H317.108ZM314.1 220.331H315.634C316.154 220.331 316.544 220.202 316.804 219.942C317.072 219.682 317.206 219.333 317.206 218.894C317.206 218.456 317.076 218.115 316.816 217.871C316.556 217.619 316.162 217.494 315.634 217.494H314.1V220.331Z" fill="#979797"/>
<path d="M294.221 253.615H292.652V255.223H291.829V253.615H290.26V252.869H291.829V251.261H292.652V252.869H294.221V253.615ZM295.517 253.141C295.517 252.245 295.667 251.546 295.968 251.044C296.273 250.536 296.796 250.283 297.537 250.283C298.277 250.283 298.798 250.536 299.098 251.044C299.404 251.546 299.556 252.245 299.556 253.141C299.556 254.047 299.404 254.757 299.098 255.269C298.798 255.777 298.277 256.031 297.537 256.031C296.796 256.031 296.273 255.777 295.968 255.269C295.667 254.757 295.517 254.047 295.517 253.141ZM298.686 253.141C298.686 252.722 298.658 252.367 298.601 252.077C298.549 251.787 298.44 251.551 298.275 251.37C298.109 251.184 297.863 251.09 297.537 251.09C297.211 251.09 296.965 251.184 296.799 251.37C296.633 251.551 296.522 251.787 296.465 252.077C296.413 252.367 296.387 252.722 296.387 253.141C296.387 253.576 296.413 253.941 296.465 254.236C296.517 254.532 296.625 254.77 296.791 254.951C296.962 255.132 297.211 255.223 297.537 255.223C297.863 255.223 298.109 255.132 298.275 254.951C298.446 254.77 298.557 254.532 298.609 254.236C298.661 253.941 298.686 253.576 298.686 253.141ZM301.006 256.101C300.846 256.101 300.711 256.046 300.602 255.937C300.493 255.829 300.439 255.694 300.439 255.534C300.439 255.373 300.493 255.238 300.602 255.13C300.711 255.021 300.846 254.967 301.006 254.967C301.161 254.967 301.293 255.021 301.402 255.13C301.511 255.238 301.565 255.373 301.565 255.534C301.565 255.694 301.511 255.829 301.402 255.937C301.293 256.046 301.161 256.101 301.006 256.101ZM302.445 253.141C302.445 252.245 302.595 251.546 302.895 251.044C303.201 250.536 303.724 250.283 304.464 250.283C305.205 250.283 305.725 250.536 306.026 251.044C306.331 251.546 306.484 252.245 306.484 253.141C306.484 254.047 306.331 254.757 306.026 255.269C305.725 255.777 305.205 256.031 304.464 256.031C303.724 256.031 303.201 255.777 302.895 255.269C302.595 254.757 302.445 254.047 302.445 253.141ZM305.614 253.141C305.614 252.722 305.585 252.367 305.528 252.077C305.477 251.787 305.368 251.551 305.202 251.37C305.037 251.184 304.791 251.09 304.464 251.09C304.138 251.09 303.892 251.184 303.726 251.37C303.561 251.551 303.449 251.787 303.392 252.077C303.341 252.367 303.315 252.722 303.315 253.141C303.315 253.576 303.341 253.941 303.392 254.236C303.444 254.532 303.553 254.77 303.719 254.951C303.89 255.132 304.138 255.223 304.464 255.223C304.791 255.223 305.037 255.132 305.202 254.951C305.373 254.77 305.484 254.532 305.536 254.236C305.588 253.941 305.614 253.576 305.614 253.141ZM311.396 250.648C311.971 250.648 312.473 250.759 312.903 250.982C313.338 251.199 313.672 251.515 313.905 251.929C314.143 252.338 314.262 252.817 314.262 253.366C314.262 253.915 314.143 254.392 313.905 254.796C313.672 255.2 313.338 255.51 312.903 255.728C312.473 255.94 311.971 256.046 311.396 256.046H309.633V250.648H311.396ZM311.396 255.324C312.028 255.324 312.512 255.153 312.849 254.811C313.185 254.469 313.354 253.988 313.354 253.366C313.354 252.74 313.185 252.25 312.849 251.898C312.512 251.546 312.028 251.37 311.396 251.37H310.518V255.324H311.396Z" fill="black"/>
<line x1="290.474" y1="254.845" x2="293.996" y2="254.845" stroke="black" stroke-width="0.503149"/>
</g>
<defs>
<clipPath id="clip0_2400_101">
<rect width="414" height="259" fill="white"/>
</clipPath>
</defs>
</svg>
